<svg width="97" height="36" viewBox="0 0 97 36" fill="none" xmlns="http://www.w3.org/2000/svg">
<g clip-path="url(#clip0_1030_4108)">
<path d="M3.07394 25.6222L4.67923 21.2396L6.18204 25.657H3.07394V25.6222ZM7.75317 30.0744H9.22183L5.39648 19.4657H3.96197L0 30.0744H1.46866L2.62993 26.8048H6.5919L7.75317 30.0744ZM14.6866 27.8135C14.6866 28.6831 14.0035 29.1353 12.8081 29.1353C11.8518 29.1353 11.237 28.857 10.8613 28.2309L9.46092 28.4744C10.0074 29.6222 11.1345 30.144 12.7398 30.144C14.9257 30.144 16.0528 28.9266 16.0528 27.6048C16.0528 25.9353 14.5158 25.4831 12.7739 25.1005C11.9201 24.9266 10.9296 24.6135 10.9296 23.8483C10.9296 23.2918 11.4419 22.6657 12.5007 22.6657C13.5595 22.6657 14.2085 23.3961 14.3109 23.7092L15.5405 23.1874C14.9599 22.0744 13.8327 21.657 12.6715 21.657C10.8271 21.657 9.63169 22.5614 9.63169 24.0222C9.63169 25.6918 11.032 26.0048 12.3982 26.3179C13.5595 26.6309 14.6866 26.9092 14.6866 27.8135ZM18.9901 19.4657L17.6239 20.057V22.0048H16.3602V23.1179H17.6239V28.3005C17.5898 29.344 17.5898 30.1092 19.1609 30.1092C19.6732 30.1092 20.2197 30.0048 20.4588 29.97V28.8918C20.1856 28.9614 19.844 29.0657 19.6049 29.0657C19.0243 29.0657 19.0243 28.6483 19.0243 27.7092V23.1179H20.4588V22.0048H19.0243V19.4657H18.9901ZM21.6201 22.0048V30.0744H22.9521V26.3527C22.9521 25.657 22.918 24.857 23.2937 24.2657C23.7377 23.5353 24.3525 23.2918 25.6845 23.257V21.8657C25.138 21.9005 23.7377 21.9005 22.9863 23.4309V22.0048H21.6201ZM33.506 19.4657V20.7874H39.4489L33.5401 28.7179V30.1092H41.1567V28.8222H35.1113L41.0201 20.8222V19.5005H33.506V19.4657ZM49.4905 22.0048V30.0744H50.8225V25.4831C50.8225 24.8918 50.8225 24.2657 51.4032 23.6744C51.813 23.257 52.3254 23.0483 52.906 23.0483C53.6232 23.0483 54.3746 23.3961 54.6137 24.1614C54.682 24.4396 54.682 24.6831 54.682 25.4831V30.0396H56.0141V25.3092C56.0141 24.6135 56.0141 24.1266 55.8775 23.6744C55.5018 22.3527 54.2722 21.8309 53.2817 21.8309C52.8035 21.8309 51.5398 21.9353 50.8225 23.257V22.0396H49.4905V22.0048ZM70.1201 28.1266C69.8468 28.6831 69.3345 29.17 68.2757 29.17C67.3877 29.17 65.8849 28.6135 65.8849 25.9353C65.8849 25.2048 66.0215 22.7005 68.2074 22.7005C69.3004 22.7005 69.8127 23.3266 70.0518 23.8483L71.2813 23.3266C70.5299 22.0396 69.1296 21.7266 68.1391 21.7266C65.6116 21.7266 64.382 23.7787 64.382 26.0744C64.382 28.057 65.4408 30.2483 68.2416 30.2483C69.8468 30.2483 70.769 29.4483 71.2472 28.6483L70.1201 28.1266ZM43.0694 25.2048H47.2704C47.168 23.0831 45.9725 22.7353 45.1528 22.7353C44.0257 22.7353 43.2401 23.57 43.0694 25.2048ZM48.3634 28.544C47.9194 29.344 47.0313 30.2135 45.3236 30.2135C43.0011 30.2135 41.6349 28.6135 41.6349 25.9005C41.6349 22.8744 43.5817 21.7266 45.2553 21.7266C46.7239 21.7266 48.0901 22.5614 48.5683 24.5787C48.7049 25.2744 48.7049 25.8657 48.7049 26.2135H43.0352C43.0011 27.57 43.5475 29.2744 45.4261 29.2396C46.1775 29.2396 46.7239 28.857 47.0655 28.3353L48.3634 28.544ZM58.2 25.2048H62.4011C62.2986 23.0831 61.1032 22.7353 60.2835 22.7353C59.1222 22.7353 58.3366 23.57 58.2 25.2048ZM63.4599 28.544C63.0158 29.344 62.1278 30.2135 60.4201 30.2135C58.0975 30.2135 56.7313 28.6135 56.7313 25.9005C56.7313 22.8744 58.6782 21.7266 60.3518 21.7266C61.8204 21.7266 63.1866 22.5614 63.6648 24.5787C63.8014 25.2744 63.8014 25.8657 63.8014 26.2135H58.0975C58.0634 27.57 58.6099 29.2744 60.4884 29.2396C61.2398 29.2396 61.7863 28.857 62.1278 28.3353L63.4599 28.544ZM78.5905 30.0744H77.1901C77.1901 30.0744 77.0535 29.5179 77.0194 28.8918C76.6095 29.3092 75.8581 30.1787 74.3553 30.1787C72.8183 30.1787 71.6912 29.2396 71.6912 27.8831C71.6912 27.4657 71.7937 27.0135 72.0327 26.6657C72.4768 25.97 73.3306 25.4483 75.6873 25.2396L76.9511 25.1353V24.9266C76.9511 24.0918 76.9511 22.7005 75.175 22.7005C74.082 22.7005 73.6722 23.257 73.5697 23.744L72.3401 23.2222C72.3743 23.1874 72.3743 23.1179 72.4085 23.0831C72.8866 22.2135 73.8088 21.657 75.1408 21.657C75.8581 21.657 76.8144 21.8309 77.4292 22.3527C78.3173 23.0483 78.2831 24.37 78.2831 24.37L78.3514 28.5092C78.3514 28.544 78.4197 29.7266 78.5905 30.0744ZM76.7461 27.8483C76.9511 27.3961 76.9511 27.2222 76.9511 26.0396C76.4387 26.1092 75.7215 26.2135 74.8676 26.4222C73.3989 26.7353 73.1599 27.3266 73.1599 27.8831C73.1599 28.544 73.6722 29.0657 74.6627 29.0657C75.5849 29.0657 76.3704 28.6831 76.7461 27.8483ZM32.5838 30.0744H31.2176C31.2176 30.0744 31.081 29.5179 31.0468 28.8918C30.637 29.3092 29.8856 30.1787 28.3827 30.1787C26.8458 30.1787 25.6845 29.2396 25.6845 27.8831C25.6845 27.4657 25.787 27.0135 26.0261 26.6657C26.4701 25.97 27.3239 25.4483 29.6806 25.2396L30.9444 25.1353V24.9266C30.9444 24.0918 30.9444 22.7005 29.1683 22.7005C28.0412 22.7005 27.6655 23.257 27.563 23.744L26.3335 23.2222C26.3676 23.1874 26.3676 23.1179 26.4018 23.0831C26.8799 22.2135 27.8021 21.657 29.1342 21.657C29.8514 21.657 30.8077 21.8309 31.4225 22.3527C32.3106 23.0483 32.2764 24.37 32.2764 24.37L32.3106 28.5092C32.3447 28.544 32.413 29.7266 32.5838 30.0744ZM30.7736 27.8483C30.9785 27.3961 30.9785 27.2222 30.9785 26.0396C30.4662 26.1092 29.7489 26.2135 28.8951 26.4222C27.4264 26.7353 27.1873 27.3266 27.1873 27.8831C27.1873 28.544 27.6996 29.0657 28.6901 29.0657C29.5782 29.0657 30.3637 28.6831 30.7736 27.8483Z" fill="#8A0051"/>
<path d="M87.2317 23.2919C87.0268 23.431 86.8219 23.5701 86.6169 23.7093C84.2261 22.3527 79.1028 19.744 78.6588 19.5354C78.1807 19.2919 77.3609 18.944 77.4634 18.144C77.6 17.031 79.5469 14.5614 80.3666 13.518C84.8067 8.02231 86.7877 6.31796 88.0856 6.49187C89.486 6.66579 90.2715 8.16144 90.374 15.0484C89.5884 14.8049 88.7346 14.5614 87.8124 14.318C87.7441 13.3093 87.5391 11.8136 87.4708 11.2919C87.4025 10.7006 87.2659 10.4919 87.061 10.4571C86.7877 10.4223 86.1388 11.0484 85.5581 11.6745C85.2849 11.9527 84.5335 12.718 83.7138 13.5875C83.0307 13.5527 82.5525 13.6919 82.3134 14.0397C82.1085 14.318 82.0743 14.7006 82.1768 15.1875C81.7328 15.6397 81.3571 16.0223 81.0838 16.3006C80.1616 17.2397 79.1712 18.0049 79.137 18.3875C79.1028 18.7006 79.5469 19.0136 80.23 19.431C81.8011 20.3006 85.7972 22.5267 87.2317 23.2919ZM93.4479 16.4049C91.8768 15.8484 88.0173 14.3875 83.9529 13.831C82.5525 13.6571 82.006 14.144 82.5525 15.5006C83.1331 16.8571 84.6018 19.0832 86.1388 20.7875C87.6757 22.4571 89.3493 22.9093 89.8958 20.3354C89.93 20.231 89.93 20.1614 89.9641 20.0571C90.1007 19.3962 90.2032 18.7354 90.2374 18.1788C89.5543 17.8658 88.7687 17.518 88.0173 17.2049C88.0515 17.7962 88.1198 18.8397 88.1539 19.6049C88.1539 19.7093 88.1539 19.8136 88.1539 19.8832C88.1881 21.1701 87.7782 21.1701 87.061 20.6484C86.2412 20.0571 83.6796 16.6136 83.3722 15.0832C83.3722 14.9788 83.4064 14.9788 83.4405 15.0136C83.4747 15.0136 83.4747 15.0136 83.5088 15.0484C84.0895 15.2919 86.0021 16.0571 87.949 16.8919C88.7345 17.2397 89.5201 17.5527 90.2032 17.9006C90.8863 18.2136 91.5011 18.5267 91.9793 18.7701C92.8331 19.2223 93.1405 19.5354 92.799 19.918C91.0571 21.7267 84.9092 24.3006 82.7916 27.5006C82.7916 27.5006 82.7916 27.5006 82.7574 27.5354C82.7233 27.5701 82.7233 27.6049 82.6891 27.6397C82.6891 27.6397 82.6891 27.6745 82.655 27.6745C82.5525 27.8832 82.4159 28.1962 82.3476 28.6136C82.2451 29.3093 82.6208 29.9354 83.6113 30.2136C83.8504 30.2832 84.1236 30.3527 84.431 30.3875C84.4993 30.3875 84.5335 30.3875 84.6018 30.3875C86.4803 30.4919 91.3986 29.3788 92.8673 28.718C94.4043 28.0223 93.9603 27.3267 93.5162 26.9788C93.1747 26.7006 91.4669 25.7267 90.6472 25.2745C90.4081 25.4136 90.2374 25.518 90.0324 25.6919C91.4328 26.5614 92.0134 27.0136 92.355 27.2571C92.4916 27.3614 92.4233 27.4658 92.2184 27.5006C92.1842 27.5006 92.1159 27.5006 92.0817 27.5006C90.7497 27.6049 88.1881 27.7788 86.9926 27.8484C86.8219 27.8484 86.6169 27.8832 86.5145 27.8832C86.8219 27.6049 87.1293 27.3614 87.3 27.2223C89.8617 25.3788 94.131 22.8049 95.3948 21.6919C96.3511 20.8223 98.8786 18.318 93.4479 16.4049Z" fill="#EFAB00"/>
</g>
<defs>
<clipPath id="clip0_1030_4108">
<rect width="97" height="24" fill="white" transform="translate(0 6.47998)"/>
</clipPath>
</defs>
</svg>
