<svg width="40" height="40" viewBox="0 0 40 40" fill="none" xmlns="http://www.w3.org/2000/svg">
<path fill-rule="evenodd" clip-rule="evenodd" d="M1.7494 20.0903C1.7494 10.4278 9.87271 2.61429 19.8689 2.61429C29.865 2.61429 37.9882 10.4278 37.9882 20.0903C37.9882 29.7528 29.865 37.5662 19.8689 37.5662C9.87271 37.5662 1.7494 29.7528 1.7494 20.0903ZM19.8689 3.23929C10.196 3.23929 2.3744 10.7945 2.3744 20.0903C2.3744 29.3861 10.196 36.9412 19.8689 36.9412C29.5417 36.9412 37.3632 29.3861 37.3632 20.0903C37.3632 10.7945 29.5417 3.23929 19.8689 3.23929Z" fill="#F5F5F5"/>
<path fill-rule="evenodd" clip-rule="evenodd" d="M17.3907 10.0591C17.2484 9.90289 17.0655 9.79104 16.7926 9.65441L17.0725 9.09558C17.358 9.23855 17.6287 9.39232 17.8526 9.63806C18.0802 9.88768 18.2388 10.2082 18.352 10.6542C18.5703 11.5145 18.6392 12.9318 18.6407 15.4399C19.2108 16.3926 20.3374 18.2928 20.5617 18.742C20.6849 18.989 20.6086 19.234 20.5059 19.4082C20.403 19.5828 20.2431 19.7441 20.0787 19.8825C19.8163 20.1036 19.4943 20.3061 19.2269 20.4535C19.2605 20.7308 19.2824 21.0784 19.2611 21.4045C19.2473 21.6148 19.2147 21.8326 19.1463 22.0216C19.0797 22.2058 18.962 22.4087 18.7473 22.5163C18.6198 22.5801 18.5208 22.7103 18.4522 22.8877C18.3916 23.0447 18.367 23.2086 18.3624 23.318C18.5487 24.0338 18.7177 25.0876 18.6105 25.9588C18.556 26.4014 18.4253 26.8397 18.1477 27.1555C17.8532 27.4902 17.4294 27.6469 16.8938 27.5798C15.3118 27.3817 13.9104 27.4674 13.2614 27.551C13.1275 27.9639 12.9524 28.5359 12.8033 29.0913C12.6266 29.7499 12.5 30.3381 12.5 30.625H11.875C11.875 30.2409 12.0275 29.5709 12.1997 28.9293C12.3761 28.272 12.5873 27.595 12.7284 27.1711L12.7878 26.9925L12.9734 26.9615C13.5601 26.8636 15.1536 26.732 16.9714 26.9597C17.329 27.0044 17.5378 26.9024 17.6784 26.7427C17.8357 26.5638 17.9423 26.2717 17.9901 25.8825C18.0855 25.1077 17.9286 24.1176 17.7471 23.4357L17.7366 23.3962V23.3553C17.7366 23.1824 17.7698 22.9199 17.8692 22.6625C17.9682 22.4065 18.1483 22.1173 18.4674 21.9575C18.476 21.9532 18.5165 21.9254 18.5586 21.809C18.5989 21.6974 18.6256 21.5447 18.6374 21.3637C18.661 21.0032 18.6221 20.595 18.5782 20.3309L18.5404 20.1035L18.7465 20.0002C19.013 19.8667 19.3944 19.6418 19.676 19.4045C19.8187 19.2844 19.9169 19.1765 19.9675 19.0907C19.9924 19.0485 19.9985 19.0254 19.9996 19.0155C19.7761 18.5709 18.6204 16.6223 18.0601 15.6869L18.0157 15.6127V15.5263C18.0157 12.9436 17.9441 11.5875 17.7462 10.8079C17.65 10.4291 17.5296 10.2114 17.3907 10.0591ZM19.9994 19.0096C19.9996 19.0095 20 19.0109 19.9998 19.0141C19.9991 19.0113 19.9992 19.0097 19.9994 19.0096Z" fill="#E01F2D"/>
<path fill-rule="evenodd" clip-rule="evenodd" d="M26.8488 22.9287C26.9057 23.1964 26.8719 23.4829 26.7287 23.7758C26.4448 24.3565 25.9606 24.6027 25.4925 24.6681C25.0397 24.7314 24.5953 24.6291 24.318 24.5156L24.3057 24.5106L21.4202 23.035L21.7048 22.4785L24.5662 23.9418C24.7687 24.0224 25.0938 24.0928 25.406 24.0491C25.7092 24.0068 25.9913 23.8611 26.1672 23.5013C26.2539 23.3239 26.2631 23.1793 26.2375 23.0588C26.2107 22.9332 26.1406 22.8089 26.0304 22.6883C25.8048 22.4413 25.4551 22.2586 25.1976 22.1708L25.3993 21.5792C25.7165 21.6874 26.1715 21.9161 26.4918 22.2668C26.6547 22.445 26.7929 22.666 26.8488 22.9287Z" fill="#E01F2D"/>
<path fill-rule="evenodd" clip-rule="evenodd" d="M20.9635 23.8778C20.9634 23.8778 20.9634 23.8778 21.0938 23.5938C21.2242 23.3097 21.2242 23.3098 21.2242 23.3098L21.2931 23.3415C21.338 23.3622 21.4038 23.3926 21.4877 23.4314C21.6554 23.5092 21.8954 23.6208 22.1845 23.7564C22.7626 24.0276 23.5379 24.3953 24.3258 24.7804C25.1131 25.1653 25.916 25.5691 26.5481 25.9126C26.8636 26.084 27.1408 26.2426 27.3536 26.3778C27.4598 26.4452 27.554 26.5093 27.6305 26.5683C27.7005 26.6222 27.7793 26.6894 27.8325 26.7648C28.0901 27.1299 28.118 27.5296 28.0016 27.8805C27.8887 28.221 27.6441 28.5087 27.3609 28.6975C27.0217 28.9237 26.6054 28.9055 26.2884 28.8407C25.9612 28.7738 25.6639 28.6419 25.498 28.5483L25.805 28.004C25.9251 28.0717 26.1614 28.1768 26.4136 28.2284C26.676 28.282 26.8847 28.2638 27.0142 28.1775C27.1997 28.0538 27.3457 27.8727 27.4084 27.6838C27.4675 27.5054 27.4558 27.3151 27.3218 27.1251C27.3229 27.1267 27.3227 27.1265 27.3208 27.1245C27.3152 27.1189 27.2952 27.0989 27.249 27.0633C27.1933 27.0204 27.1164 26.9675 27.0186 26.9054C26.8233 26.7814 26.5603 26.6305 26.2497 26.4617C25.6294 26.1248 24.836 25.7255 24.0513 25.3419C23.2674 24.9587 22.4953 24.5926 21.919 24.3222C21.6309 24.1871 21.3919 24.0759 21.2249 23.9985C21.1414 23.9598 21.076 23.9296 21.0315 23.9091L20.9635 23.8778ZM23.2643 26.361C22.4299 25.7233 21.2762 25.1712 20.4955 24.8156L20.7546 24.2469C21.5327 24.6013 22.7466 25.1787 23.6439 25.8644C24.0901 26.2054 24.4879 26.5953 24.7032 27.0236C24.9291 27.473 24.9531 27.9698 24.6355 28.4489C24.3707 28.8482 23.9401 29.015 23.5223 29.0325C23.1072 29.0498 22.6717 28.924 22.3286 28.6988L22.6715 28.1763C22.9093 28.3323 23.2164 28.4197 23.4962 28.408C23.7732 28.3964 23.9896 28.2919 24.1146 28.1035C24.2896 27.8395 24.2861 27.5855 24.1448 27.3043C23.9929 27.0021 23.684 26.6817 23.2643 26.361Z" fill="#E01F2D"/>
</svg>
