<svg width="41" height="40" viewBox="0 0 41 40" fill="none" xmlns="http://www.w3.org/2000/svg">
<path fill-rule="evenodd" clip-rule="evenodd" d="M2.08275 20.0903C2.08275 10.4278 10.206 2.61429 20.2022 2.61429C30.1983 2.61429 38.3215 10.4278 38.3215 20.0903C38.3215 29.7528 30.1983 37.5662 20.2022 37.5662C10.206 37.5662 2.08275 29.7528 2.08275 20.0903ZM20.2022 3.23929C10.5293 3.23929 2.70775 10.7945 2.70775 20.0903C2.70775 29.3861 10.5293 36.9412 20.2022 36.9412C29.875 36.9412 37.6965 29.3861 37.6965 20.0903C37.6965 10.7945 29.875 3.23929 20.2022 3.23929Z" fill="#F5F5F5"/>
<path fill-rule="evenodd" clip-rule="evenodd" d="M17.7241 10.0591C17.5817 9.90289 17.3988 9.79104 17.126 9.65441L17.4059 9.09558C17.6913 9.23855 17.962 9.39232 18.186 9.63806C18.4135 9.88768 18.5721 10.2082 18.6853 10.6542C18.9037 11.5145 18.9725 12.9318 18.974 15.4399C19.5441 16.3926 20.6708 18.2928 20.895 18.742C21.0183 18.989 20.942 19.234 20.8393 19.4082C20.7363 19.5828 20.5764 19.7441 20.412 19.8825C20.1496 20.1036 19.8277 20.3061 19.5602 20.4535C19.5939 20.7308 19.6158 21.0784 19.5944 21.4045C19.5807 21.6148 19.548 21.8326 19.4796 22.0216C19.413 22.2058 19.2953 22.4087 19.0806 22.5163C18.9532 22.5801 18.8541 22.7103 18.7856 22.8877C18.7249 23.0447 18.7004 23.2086 18.6958 23.318C18.882 24.0338 19.051 25.0876 18.9438 25.9588C18.8893 26.4014 18.7587 26.8397 18.481 27.1555C18.1866 27.4902 17.7628 27.6469 17.2271 27.5798C15.6451 27.3817 14.2437 27.4674 13.5948 27.551C13.4608 27.9639 13.2857 28.5359 13.1367 29.0913C12.9599 29.7499 12.8333 30.3381 12.8333 30.625H12.2083C12.2083 30.2409 12.3609 29.5709 12.533 28.9293C12.7094 28.272 12.9206 27.595 13.0617 27.1711L13.1211 26.9925L13.3068 26.9615C13.8934 26.8636 15.4869 26.732 17.3048 26.9597C17.6623 27.0044 17.8712 26.9024 18.0117 26.7427C18.169 26.5638 18.2756 26.2717 18.3235 25.8825C18.4188 25.1077 18.262 24.1176 18.0805 23.4357L18.0699 23.3962V23.3553C18.0699 23.1824 18.1031 22.9199 18.2026 22.6625C18.3015 22.4065 18.4816 22.1173 18.8007 21.9575C18.8093 21.9532 18.8498 21.9254 18.8919 21.809C18.9323 21.6974 18.9589 21.5447 18.9708 21.3637C18.9943 21.0032 18.9555 20.595 18.9115 20.3309L18.8737 20.1035L19.0799 20.0002C19.3464 19.8667 19.7277 19.6418 20.0094 19.4045C20.152 19.2844 20.2503 19.1765 20.3009 19.0907C20.3258 19.0485 20.3319 19.0254 20.333 19.0155C20.1095 18.5709 18.9538 16.6223 18.3935 15.6869L18.3491 15.6127V15.5263C18.3491 12.9436 18.2774 11.5875 18.0795 10.8079C17.9834 10.4291 17.8629 10.2114 17.7241 10.0591ZM20.3328 19.0096C20.333 19.0095 20.3333 19.0109 20.3331 19.0141C20.3324 19.0113 20.3325 19.0097 20.3328 19.0096Z" fill="#E01F2D"/>
<path fill-rule="evenodd" clip-rule="evenodd" d="M24.2276 20.8516C24.275 21.0176 24.1789 21.1906 24.013 21.238L20.7317 22.1755C20.5658 22.2229 20.3928 22.1268 20.3454 21.9608C20.298 21.7949 20.3941 21.6219 20.56 21.5745L23.8413 20.637C24.0072 20.5896 24.1802 20.6857 24.2276 20.8516ZM20.3649 23.1444C20.4405 22.9892 20.6276 22.9247 20.7827 23.0003L26.8765 25.9691C27.0316 26.0446 27.0961 26.2317 27.0206 26.3869C26.945 26.542 26.7579 26.6065 26.6028 26.5309L20.509 23.5622C20.3538 23.4866 20.2893 23.2995 20.3649 23.1444ZM20.1936 24.5642C20.348 24.487 20.5357 24.5496 20.6129 24.704L22.1754 27.829C22.2526 27.9834 22.19 28.1711 22.0356 28.2482C21.8813 28.3254 21.6935 28.2629 21.6164 28.1085L20.0539 24.9835C19.9767 24.8291 20.0392 24.6414 20.1936 24.5642Z" fill="#E01F2D"/>
</svg>
