<svg width="41" height="40" viewBox="0 0 41 40" fill="none" xmlns="http://www.w3.org/2000/svg">
<path d="M14.4717 11.6808V17.9155C14.4717 18.5916 14.1275 19.2301 13.5921 19.6432C13.4009 19.7934 13.2097 19.9437 13.0185 20.0939C12.7508 20.3193 12.5596 20.6573 12.5596 20.9953V28.0563C12.5596 28.77 11.986 29.3709 11.2594 29.3709C11.2594 29.3709 11.2594 29.3709 11.2212 29.3709C11.2212 29.3709 11.2212 29.3709 11.183 29.3709C10.4946 29.3709 9.92098 28.77 9.92098 28.0563V20.8451C9.92098 20.4695 9.7298 20.1315 9.42386 19.9437L8.50608 19.3427C8.12367 19.0798 7.89423 18.6667 7.89423 18.216V11.6808H8.65905L8.81202 18.1033C8.81202 18.4038 8.92673 18.6667 9.15617 18.8545L10.1504 19.7559C10.4946 20.0563 10.724 20.5446 10.724 20.9953C10.724 23.3991 10.7623 25.8028 10.7623 28.169C10.8005 28.3568 10.9535 28.4695 11.1447 28.4695C11.3359 28.4695 11.5271 28.3568 11.5654 28.169C11.5654 25.8404 11.6036 23.5118 11.6036 21.1831C11.6036 20.6573 11.833 20.1315 12.2537 19.7934C12.4066 19.6808 12.5596 19.5305 12.7126 19.3803C13.248 18.892 13.5156 18.1784 13.5156 17.4648V11.6808H14.4717Z" fill="#E0202E"/>
<path d="M12.5214 11.6808H11.7948V17.1268H12.5214V11.6808Z" fill="#E0202E"/>
<path d="M10.6093 11.6808H9.92101V17.1268H10.6093V11.6808Z" fill="#E0202E"/>
<path fill-rule="evenodd" clip-rule="evenodd" d="M18.4753 13.3788C18.9641 13.4206 19.4827 13.5858 19.9722 13.8462L19.9765 13.8485L19.9807 13.851C20.3276 14.0497 20.7474 14.0325 21.1336 13.8451C22.018 13.3521 23.0185 13.3376 23.7788 13.8208L23.7824 13.8231L23.7824 13.8231C24.3248 14.1783 24.6189 14.7263 24.7469 15.2606C24.8739 15.7907 24.8458 16.3395 24.7102 16.739L24.7088 16.743L24.7073 16.747C24.6249 16.9697 24.5278 17.2115 24.2691 17.5826C24.0163 17.945 23.6114 18.4281 22.9184 19.1466L22.9154 19.1496L22.9124 19.1526C22.2543 19.799 21.6411 20.3555 21.1333 20.8163C20.9881 20.9481 20.8515 21.0721 20.7249 21.1882L20.5188 21.3771L20.3082 21.1932C20.1675 21.0703 19.9981 20.9466 19.7879 20.7932C19.7603 20.773 19.732 20.7524 19.703 20.7311C19.4574 20.5514 19.1723 20.3391 18.8569 20.068L18.8555 20.0668C18.1847 19.4833 17.8137 19.1386 17.5704 18.8899C17.3644 18.6793 17.2497 18.5369 17.1306 18.3891C17.1072 18.36 17.0837 18.3308 17.0592 18.3007L17.0556 18.2963L17.0521 18.2917C16.5695 17.6527 16.265 16.7351 16.2292 15.8769C16.1939 15.0307 16.42 14.1393 17.1284 13.6741C17.5106 13.4168 17.9893 13.3373 18.4753 13.3788ZM18.4221 14.0016C18.0294 13.968 17.7058 14.0384 17.4764 14.1933L17.4745 14.1945L17.4727 14.1958C17.0353 14.4821 16.8221 15.0922 16.8537 15.8509C16.8847 16.5962 17.1525 17.3852 17.5475 17.9106C17.5729 17.9418 17.5968 17.9714 17.6198 18C17.7368 18.1451 17.8333 18.2649 18.0172 18.4529C18.2423 18.683 18.5977 19.0142 19.265 19.5946C19.5612 19.8491 19.8303 20.0498 20.0721 20.2267C20.1005 20.2475 20.1288 20.2682 20.1568 20.2886C20.2774 20.3766 20.3937 20.4615 20.5021 20.5453C20.5721 20.4817 20.6442 20.4162 20.7183 20.349C21.2244 19.8896 21.8243 19.3452 22.4715 18.7096C23.1533 18.0026 23.5315 17.5476 23.7564 17.225C23.9741 16.9129 24.0496 16.7233 24.1197 16.5343C24.2125 16.2576 24.241 15.8318 24.1391 15.4062C24.0378 14.9834 23.8161 14.593 23.4418 14.3472C22.9044 14.0067 22.1505 13.9911 21.4315 14.3946L21.424 14.3988L21.4163 14.4026C20.8882 14.662 20.2423 14.7188 19.6746 14.3958C19.2475 14.1693 18.8117 14.0348 18.4221 14.0016Z" fill="#E0202E"/>
<path d="M21.0491 22.8733C21.508 22.1221 22.0051 21.709 22.3875 21.5211C23.1906 21.108 23.7642 21.2207 25.0644 20.8451C25.791 20.6573 26.3646 20.3944 26.747 20.2441C26.8235 20.3944 27.8942 22.7606 26.4411 24.9765C25.0644 27.0798 22.617 27.2301 22.3875 27.2301C22.0051 27.2676 21.508 27.2301 21.2021 26.9296C20.8197 26.5165 21.0491 25.9906 20.8579 25.0141C20.7814 24.7136 20.552 23.8122 19.9019 23.1362C19.5577 22.7981 19.2136 22.5728 17.7986 22.0845C17.0338 21.8216 16.0778 21.5211 14.8541 21.2207C14.3569 23.1362 14.9306 25.1268 16.3072 26.3287C17.5692 27.3803 19.0606 27.4179 19.5195 27.4179C19.2518 26.9672 18.9841 26.5165 18.6017 25.9906C17.8751 25.0517 17.1485 24.338 16.4984 23.8122C16.6514 23.6995 16.8044 23.5493 16.9573 23.4366C17.5692 23.7747 18.487 24.4132 19.3665 25.4273C20.3225 26.5165 20.7814 27.6432 21.0109 28.3568C20.5902 28.432 18.181 28.8826 16.116 27.3803C14.0893 25.8404 13.2862 22.986 14.2805 20.2441C15.313 20.5822 16.1543 20.8451 16.7661 20.9953C17.8751 21.2582 18.2958 21.2958 18.9841 21.5963C19.9784 21.9343 20.6285 22.4601 21.0491 22.8733ZM22.1963 26.4413C22.4258 26.4413 24.2996 26.4789 25.5615 24.939C26.9 23.324 26.3646 21.3709 26.3264 21.2207C25.6762 21.2958 24.8732 21.446 23.9937 21.7465C22.77 22.1596 21.8904 22.4601 21.5462 23.2489C21.2403 23.9249 21.4315 24.601 21.5845 25.0141C22.1198 24.7136 22.6552 24.3756 23.2288 23.9625C23.6877 23.662 24.1084 23.3615 24.4908 23.061C24.6055 23.1737 24.7202 23.2864 24.8732 23.3991C24.3761 23.6995 23.6495 24.2629 22.9994 25.0892C22.6552 25.5775 22.3875 26.0282 22.1963 26.4413Z" fill="#E0202E"/>
<path d="M29.8827 29.8967C29.4621 29.9342 29.0032 29.7464 28.7355 29.3708V12.2441C28.9267 12.169 29.7298 11.8309 30.6476 12.0938C30.724 12.1314 30.8005 12.1314 30.877 12.169C31.7948 12.5446 32.3685 13.4835 32.3685 14.4601C32.4067 16.7136 32.4067 18.5539 32.4832 20.0938C32.5213 20.6948 32.5595 21.8591 31.9095 22.1971C31.6036 22.3849 31.1829 22.2722 30.9153 22.1596V28.8075C30.8388 29.4084 30.4181 29.8216 29.8827 29.8967ZM30.4946 19.4553C30.724 19.4929 30.9153 19.6807 30.9153 19.9061C30.9535 20.7323 31.0682 21.5586 31.2977 21.5586C31.3359 21.5586 31.4124 21.5586 31.4888 21.446C31.7183 20.845 31.7565 20.0563 31.7948 19.6807C31.7948 19.4553 31.7948 19.3427 31.7948 19.1549L31.6418 14.7605C31.6418 14.1596 31.3359 13.5586 30.877 13.1831C30.6476 12.9952 30.3799 12.8826 30.1504 12.8075C29.8063 12.6948 29.4238 12.9577 29.4238 13.3333V28.7699C29.3856 29.0704 29.615 29.2957 29.768 29.2957C29.9592 29.2957 30.1887 29.0704 30.1504 28.7699C30.1504 25.7652 30.1887 22.723 30.1887 19.7183C30.1887 19.5305 30.3034 19.4178 30.4946 19.4553Z" fill="#E0202E"/>
<path fill-rule="evenodd" clip-rule="evenodd" d="M2.18973 19.9061C2.18973 9.57331 10.4583 1.18988 20.6667 1.18988C30.875 1.18988 39.1435 9.57331 39.1435 19.9061C39.1435 30.239 30.875 38.6225 20.6667 38.6225C10.4583 38.6225 2.18973 30.239 2.18973 19.9061ZM20.6667 1.81488C10.8112 1.81488 2.81473 9.91075 2.81473 19.9061C2.81473 29.9015 10.8112 37.9975 20.6667 37.9975C30.5222 37.9975 38.5185 29.9015 38.5185 19.9061C38.5185 9.91075 30.5222 1.81488 20.6667 1.81488Z" fill="#F5F5F5"/>
</svg>
