<svg width="40" height="40" viewBox="0 0 40 40" fill="none" xmlns="http://www.w3.org/2000/svg">
<path fill-rule="evenodd" clip-rule="evenodd" d="M1.7494 20.0903C1.7494 10.4278 9.87271 2.61429 19.8689 2.61429C29.865 2.61429 37.9882 10.4278 37.9882 20.0903C37.9882 29.7528 29.865 37.5662 19.8689 37.5662C9.87271 37.5662 1.7494 29.7528 1.7494 20.0903ZM19.8689 3.23929C10.196 3.23929 2.3744 10.7945 2.3744 20.0903C2.3744 29.3861 10.196 36.9412 19.8689 36.9412C29.5417 36.9412 37.3632 29.3861 37.3632 20.0903C37.3632 10.7945 29.5417 3.23929 19.8689 3.23929Z" fill="#F5F5F5"/>
<path fill-rule="evenodd" clip-rule="evenodd" d="M13.1244 12.7329C14.8201 11.8323 17.1389 12.0314 18.7519 13.4469C18.8816 13.5607 18.8945 13.7582 18.7806 13.8879C18.6668 14.0176 18.4693 14.0305 18.3396 13.9167C16.9231 12.6735 14.8853 12.5053 13.4176 13.2849C12.6891 13.6718 12.1032 14.2905 11.7967 15.1289C11.4899 15.9682 11.454 17.0534 11.8733 18.3846C12.7206 21.0739 14.6783 23.3625 16.4482 24.9896C17.3302 25.8005 18.1588 26.4409 18.7664 26.8783C19.0701 27.0968 19.3182 27.2644 19.4897 27.377C19.5159 27.3942 19.5403 27.4101 19.5628 27.4246C19.5998 27.3926 19.6424 27.3556 19.6901 27.3141C19.8838 27.1453 20.1628 26.9001 20.5031 26.5954C21.1838 25.9857 22.1088 25.1381 23.0869 24.1859C24.0654 23.2332 25.0942 22.1785 25.9837 21.1543C26.8766 20.1262 27.615 19.1446 28.0258 18.3368C28.8151 16.7848 28.3969 15.2148 27.3817 14.1779C26.3628 13.1372 24.7586 12.6514 23.1929 13.2803C20.2253 14.4724 19.0539 16.8535 18.0678 18.8582C18.0466 18.9013 18.0254 18.9442 18.0044 18.9869H20.6008V22.721L23.9011 17.5377H21.3339C21.1613 17.5377 21.0214 17.3978 21.0214 17.2252C21.0214 17.0526 21.1613 16.9127 21.3339 16.9127H25.04L19.9758 24.8662V19.6119H16.9926L17.2211 19.1588C17.3149 18.9726 17.4101 18.7785 17.5082 18.5784C18.4872 16.5813 19.7594 13.986 22.96 12.7004C24.7854 11.9671 26.6524 12.5396 27.8283 13.7407C29.0079 14.9455 29.5081 16.8008 28.5829 18.6201C28.1365 19.498 27.3571 20.5261 26.4556 21.5641C25.5506 22.6062 24.5083 23.6742 23.5229 24.6337C22.537 25.5935 21.6052 26.4473 20.9201 27.0609C20.5774 27.3678 20.2963 27.6149 20.1006 27.7853C20.0028 27.8706 19.9263 27.9367 19.8742 27.9815C19.8481 28.004 19.8282 28.0211 19.8147 28.0326L19.7993 28.0458L19.7941 28.0503C19.794 28.0503 19.7939 28.0504 19.5913 27.8125C19.4293 28.0797 19.4292 28.0797 19.4291 28.0796L19.4276 28.0787L19.4236 28.0763L19.409 28.0673C19.3963 28.0595 19.3778 28.048 19.3539 28.0329C19.3059 28.0027 19.236 27.9581 19.1469 27.8996C18.9685 27.7826 18.7129 27.6099 18.4013 27.3855C17.7782 26.937 16.9294 26.281 16.0252 25.4498C14.2228 23.7927 12.1726 21.4143 11.2772 18.5724C10.8253 17.1379 10.8463 15.9083 11.2097 14.9143C11.5735 13.9194 12.2711 13.1861 13.1244 12.7329ZM19.5913 27.8125L19.4291 28.0796L19.6222 28.1967L19.7941 28.0503L19.5913 27.8125Z" fill="#E01F2D"/>
</svg>
