<svg width="41" height="40" viewBox="0 0 41 40" fill="none" xmlns="http://www.w3.org/2000/svg">
<path fill-rule="evenodd" clip-rule="evenodd" d="M2.41608 20.0903C2.41608 10.4278 10.5394 2.61429 20.5355 2.61429C30.5317 2.61429 38.6548 10.4278 38.6548 20.0903C38.6548 29.7528 30.5317 37.5662 20.5355 37.5662C10.5394 37.5662 2.41608 29.7528 2.41608 20.0903ZM20.5355 3.23929C10.8627 3.23929 3.04108 10.7945 3.04108 20.0903C3.04108 29.3861 10.8627 36.9412 20.5355 36.9412C30.2084 36.9412 38.0298 29.3861 38.0298 20.0903C38.0298 10.7945 30.2084 3.23929 20.5355 3.23929Z" fill="#F5F5F5"/>
<path fill-rule="evenodd" clip-rule="evenodd" d="M18.4329 14.3026C19.1733 12.2186 19.9699 9.81235 20.2329 8.4375L20.8762 8.56337C20.602 9.99708 19.7867 12.4518 19.0496 14.5267C18.6794 15.5688 18.3261 16.5227 18.0654 17.2161C17.935 17.5628 17.8277 17.8444 17.753 18.0395C17.7156 18.1371 17.6864 18.213 17.6665 18.2645L17.6361 18.3432L17.634 18.3484L17.6337 18.3492L17.633 18.3509L17.6305 18.3569L17.6215 18.3783C17.6138 18.3967 17.6024 18.4233 17.5875 18.4572C17.5577 18.5249 17.5136 18.6221 17.4557 18.7422C17.3399 18.9824 17.1683 19.3157 16.9433 19.6905C16.4962 20.4359 15.8267 21.3657 14.9525 22.0492C14.5711 22.3474 14.3441 22.6675 14.2865 22.9903C14.2315 23.2985 14.3179 23.686 14.731 24.1607C15.1491 24.6413 15.8825 25.1854 17.0579 25.7739C18.2295 26.3606 19.8217 26.9822 21.9385 27.6271C24.5899 28.4348 26.3035 28.7263 27.36 28.7118C27.8889 28.7046 28.2219 28.6206 28.4207 28.5126C28.6047 28.4126 28.6723 28.2947 28.6938 28.1708C28.7186 28.0275 28.688 27.8313 28.5826 27.5859C28.4789 27.3448 28.315 27.0846 28.1147 26.8281C27.7114 26.3117 27.1964 25.855 26.8339 25.6364C26.0246 25.1482 24.4419 24.1472 23.3519 22.63C22.2466 21.0915 21.6494 19.0193 22.8369 16.4613C24.6419 12.5728 25.5248 10.7326 25.742 10.2959L26.3274 10.5937C26.1147 11.0212 25.2354 12.8538 23.43 16.7429C22.361 19.0458 22.892 20.8624 23.8821 22.2405C24.8874 23.6398 26.3671 24.5832 27.1696 25.0672C27.613 25.3347 28.186 25.8502 28.6289 26.4174C28.8517 26.7027 29.0504 27.0122 29.1835 27.3217C29.3148 27.627 29.395 27.9625 29.3392 28.285C29.2801 28.6269 29.0757 28.909 28.7308 29.0964C28.4007 29.2757 27.948 29.3665 27.3688 29.3744C26.2091 29.3903 24.4171 29.0742 21.7495 28.2616C19.6112 27.6102 17.982 26.9761 16.7671 26.3678C15.5559 25.7613 14.7373 25.1712 14.239 24.5985C13.7357 24.02 13.5412 23.4353 13.6416 22.8726C13.7394 22.3245 14.1041 21.8749 14.5517 21.525C15.3353 20.9122 15.9553 20.0597 16.3831 19.3468C16.5957 18.9925 16.7579 18.6776 16.8666 18.4519C16.921 18.3392 16.9618 18.249 16.9888 18.1876C17.0024 18.1569 17.0124 18.1335 17.0189 18.118L17.0261 18.101L17.0271 18.0984L17.0561 18.0236C17.0758 17.9725 17.1048 17.8971 17.1419 17.8002C17.2162 17.6062 17.323 17.3258 17.4529 16.9805C17.7126 16.2898 18.0644 15.3399 18.4329 14.3026ZM17.6361 18.3432L17.634 18.3484L17.635 18.3459L17.6359 18.3436L17.6361 18.3432ZM27.2791 16.1303L25.6673 18.7228L25.1126 18.3701L26.7244 15.7776L27.2791 16.1303ZM29.4167 19.1606L26.5154 20.7809L26.1986 20.2008L29.0999 18.5805L29.4167 19.1606ZM12.3745 22.095L9.15095 20.7987L9.39307 20.1829L12.6167 21.4792L12.3745 22.095ZM29.1944 23.4083L25.9708 22.7602L26.0986 22.1102L29.3222 22.7584L29.1944 23.4083ZM9.10417 25.7154L12.3278 23.771L12.6634 24.3401L9.43984 26.2845L9.10417 25.7154ZM12.8266 28.4967L13.7937 25.2561L14.4211 25.4475L13.454 28.6882L12.8266 28.4967Z" fill="#E01F2D"/>
</svg>
