<svg width="595" height="44" viewBox="0 0 595 44" fill="none" xmlns="http://www.w3.org/2000/svg">
<g clip-path="url(#clip0_667_6532)">
<path d="M34.4142 3.11365H34.3798C31.855 3.11365 30.4434 5.00115 29.7893 6.27902C29.1236 5.00111 27.7235 3.11365 25.1987 3.11365H25.1529C22.4214 3.13712 20.145 5.51697 20.0073 8.52994C19.8351 12.2228 22.7199 14.7082 27.0349 18.4598C27.7809 19.1163 28.5728 19.808 29.4106 20.5466L29.7893 20.8866L30.1681 20.5466C30.9943 19.808 31.7977 19.1163 32.5437 18.4598C36.8587 14.7082 39.7432 12.2228 39.5711 8.52994C39.4332 5.51693 37.1456 3.13708 34.4142 3.11365Z" fill="#E01F2D"/>
<path d="M39.571 8.52994C39.7432 12.2228 36.8587 14.7082 32.5436 18.4598C31.7976 19.1163 30.9943 19.808 30.168 20.5466L29.7892 20.8866V6.27902C30.4434 5.00111 31.855 3.11365 34.3798 3.11365H34.4142C37.1456 3.13708 39.4332 5.51693 39.571 8.52994Z" fill="#C0BFBF"/>
<path d="M49.7903 16.544C49.0291 16.544 48.4089 16.3904 47.9296 16.0832C47.4504 15.7664 47.0885 15.2288 46.8442 14.4704C46.5999 13.712 46.4777 12.6752 46.4777 11.36C46.4777 10.0448 46.5952 9.00802 46.8301 8.24963C47.0744 7.49123 47.4269 6.95843 47.8873 6.65123C48.3478 6.33443 48.9352 6.17603 49.6494 6.17603C50.1099 6.17603 50.5422 6.20483 50.9463 6.26243C51.3503 6.32003 51.6699 6.38723 51.9048 6.46403V7.25603H50.2132C49.5554 7.25603 49.0479 7.55843 48.6908 8.16323C48.3431 8.76803 48.1693 9.83362 48.1693 11.36C48.1693 12.4064 48.2538 13.232 48.423 13.8368C48.6016 14.432 48.8459 14.8544 49.156 15.104C49.4755 15.344 49.8749 15.464 50.3542 15.464H52.0458V16.256C51.8108 16.3328 51.4913 16.4 51.0872 16.4576C50.6831 16.5152 50.2508 16.544 49.7903 16.544ZM54.4433 16.4V7.47203H52.2583V6.32003H58.3198V7.47203H56.1348V16.4H54.4433ZM61.9238 16.544C60.8807 16.544 60.0772 16.1456 59.5133 15.3488C58.9588 14.5424 58.6815 13.2128 58.6815 11.36C58.6815 9.50723 58.9588 8.18243 59.5133 7.38563C60.0772 6.57923 60.8807 6.17603 61.9238 6.17603C62.9763 6.17603 63.7798 6.57923 64.3343 7.38563C64.8888 8.18243 65.166 9.50723 65.166 11.36C65.166 13.2128 64.8888 14.5424 64.3343 15.3488C63.7798 16.1456 62.9763 16.544 61.9238 16.544ZM61.9238 15.536C62.3749 15.536 62.7461 15.2192 63.0374 14.5856C63.3288 13.952 63.4744 12.8768 63.4744 11.36C63.4744 9.84323 63.3288 8.76803 63.0374 8.13443C62.7461 7.50083 62.3749 7.18403 61.9238 7.18403C61.4727 7.18403 61.1015 7.50083 60.8102 8.13443C60.5189 8.76803 60.3732 9.84323 60.3732 11.36C60.3732 12.8768 60.5189 13.952 60.8102 14.5856C61.1015 15.2192 61.4727 15.536 61.9238 15.536ZM66.6434 16.4V6.32003H72.5638V16.4H70.8723V7.47203H68.3349V16.4H66.6434ZM80.7335 16.544C79.9723 16.544 79.352 16.3904 78.8728 16.0832C78.3935 15.7664 78.0317 15.2288 77.7873 14.4704C77.543 13.712 77.4208 12.6752 77.4208 11.36C77.4208 10.0448 77.5383 9.00802 77.7732 8.24963C78.0176 7.49123 78.37 6.95843 78.8305 6.65123C79.291 6.33443 79.8783 6.17603 80.5925 6.17603C81.053 6.17603 81.4853 6.20483 81.8894 6.26243C82.2935 6.32003 82.613 6.38723 82.8479 6.46403V7.25603H81.1564C80.4985 7.25603 79.9911 7.55843 79.634 8.16323C79.2863 8.76803 79.1124 9.83362 79.1124 11.36C79.1124 12.4064 79.197 13.232 79.3661 13.8368C79.5447 14.432 79.789 14.8544 80.0991 15.104C80.4187 15.344 80.8181 15.464 81.2973 15.464H82.9889V16.256C82.754 16.3328 82.4344 16.4 82.0304 16.4576C81.6263 16.5152 81.194 16.544 80.7335 16.544ZM84.0473 16.4V6.32003H89.1925V7.47203H85.7389V10.568H88.7696V11.72H85.7389V15.248H89.1925V16.4H84.0473ZM90.5966 6.46403C90.9444 6.35843 91.3062 6.28643 91.6821 6.24803C92.0674 6.20003 92.5279 6.17603 93.0635 6.17603C94.2382 6.17603 95.084 6.45443 95.6009 7.01123C96.1177 7.56803 96.3762 8.48963 96.3762 9.77603C96.3762 11.1104 96.1365 12.0704 95.6572 12.656C95.1874 13.232 94.4638 13.52 93.4864 13.52C93.3736 13.52 93.1857 13.5056 92.9226 13.4768C92.6688 13.448 92.4574 13.4144 92.2882 13.376V16.4H90.5966V6.46403ZM93.0635 12.368C93.618 12.368 94.0268 12.1808 94.2899 11.8064C94.553 11.4224 94.6846 10.7456 94.6846 9.77603C94.6846 8.84483 94.553 8.19203 94.2899 7.81763C94.0268 7.44323 93.618 7.25603 93.0635 7.25603H92.2882V12.368H93.0635ZM103.349 18.56C103.039 17.9264 102.851 17.2064 102.785 16.4H97.7102V6.32003H99.4018V15.248H101.798V6.32003H103.49V15.248H104.406V18.56H103.349ZM105.609 16.4V6.32003H110.754V7.47203H107.3V10.568H110.331V11.72H107.3V15.248H110.754V16.4H105.609ZM114.625 16.544C114.089 16.544 113.629 16.52 113.243 16.472C112.867 16.4336 112.506 16.3616 112.158 16.256V6.46403C112.506 6.35843 112.867 6.28643 113.243 6.24803C113.629 6.20003 114.089 6.17603 114.625 6.17603C115.658 6.17603 116.434 6.41123 116.951 6.88163C117.467 7.34243 117.726 7.99523 117.726 8.84003C117.726 9.28163 117.604 9.69923 117.359 10.0928C117.124 10.4768 116.8 10.7696 116.387 10.9712V11.0288C116.951 11.2304 117.383 11.5616 117.684 12.0224C117.994 12.4736 118.149 13.0208 118.149 13.664C118.149 14.624 117.872 15.344 117.317 15.824C116.763 16.304 115.865 16.544 114.625 16.544ZM114.484 10.568C114.944 10.568 115.306 10.4288 115.569 10.1504C115.832 9.86242 115.964 9.44963 115.964 8.91203C115.964 8.37443 115.832 7.96643 115.569 7.68803C115.306 7.40003 114.944 7.25603 114.484 7.25603H113.849V10.568H114.484ZM114.625 15.464C115.226 15.464 115.668 15.3152 115.95 15.0176C116.241 14.7104 116.387 14.2352 116.387 13.592C116.387 12.9104 116.241 12.416 115.95 12.1088C115.668 11.8016 115.226 11.648 114.625 11.648H113.849V15.464H114.625ZM118.717 16.4L121.254 6.32003H123.368L125.906 16.4H124.144L123.523 13.88H121.099L120.479 16.4H118.717ZM121.324 12.728H123.284L122.339 8.62403H122.283L121.324 12.728ZM130.347 16.4V6.32003H132.038V10.712H134.576V6.32003H136.267V16.4H134.576V11.864H132.038V16.4H130.347ZM138.094 16.4V6.32003H143.239V7.47203H139.785V10.568H142.816V11.72H139.785V15.248H143.239V16.4H138.094ZM143.797 15.248H144.502C144.502 15.2768 144.558 15.1712 144.671 14.9312C144.793 14.6816 144.906 14.3504 145.009 13.9376C145.113 13.5152 145.179 13.016 145.207 12.44L145.489 6.32003H150.563V15.248H151.48V18.56H150.423C150.112 17.9264 149.924 17.2064 149.859 16.4H145.418C145.353 17.2064 145.165 17.9264 144.854 18.56H143.797V15.248ZM148.872 15.248V7.32803H147.138L146.898 12.44C146.87 13.016 146.804 13.5152 146.701 13.9376C146.598 14.3504 146.485 14.6816 146.363 14.9312C146.25 15.1712 146.194 15.2768 146.194 15.248H148.872ZM155.431 16.544C154.388 16.544 153.584 16.1456 153.021 15.3488C152.466 14.5424 152.189 13.2128 152.189 11.36C152.189 9.50723 152.466 8.18243 153.021 7.38563C153.584 6.57923 154.388 6.17603 155.431 6.17603C156.484 6.17603 157.287 6.57923 157.842 7.38563C158.396 8.18243 158.673 9.50723 158.673 11.36C158.673 13.2128 158.396 14.5424 157.842 15.3488C157.287 16.1456 156.484 16.544 155.431 16.544ZM155.431 15.536C155.882 15.536 156.253 15.2192 156.545 14.5856C156.836 13.952 156.982 12.8768 156.982 11.36C156.982 9.84323 156.836 8.76803 156.545 8.13443C156.253 7.50083 155.882 7.18403 155.431 7.18403C154.98 7.18403 154.609 7.50083 154.317 8.13443C154.026 8.76803 153.88 9.84323 153.88 11.36C153.88 12.8768 154.026 13.952 154.317 14.5856C154.609 15.2192 154.98 15.536 155.431 15.536ZM163.111 16.544C162.35 16.544 161.729 16.3904 161.25 16.0832C160.771 15.7664 160.409 15.2288 160.165 14.4704C159.92 13.712 159.798 12.6752 159.798 11.36C159.798 10.0448 159.916 9.00802 160.151 8.24963C160.395 7.49123 160.747 6.95843 161.208 6.65123C161.668 6.33443 162.256 6.17603 162.97 6.17603C163.43 6.17603 163.863 6.20483 164.267 6.26243C164.671 6.32003 164.99 6.38723 165.225 6.46403V7.25603H163.534C162.876 7.25603 162.368 7.55843 162.011 8.16323C161.664 8.76803 161.49 9.83362 161.49 11.36C161.49 12.4064 161.574 13.232 161.743 13.8368C161.922 14.432 162.166 14.8544 162.476 15.104C162.796 15.344 163.195 15.464 163.675 15.464H165.366V16.256C165.131 16.3328 164.812 16.4 164.408 16.4576C164.004 16.5152 163.571 16.544 163.111 16.544ZM167.764 16.4V7.47203H165.579V6.32003H171.64V7.47203H169.455V16.4H167.764ZM171.152 16.4L173.69 6.32003H175.804L178.342 16.4H176.58L175.959 13.88H173.535L172.914 16.4H171.152ZM173.76 12.728H175.72L174.775 8.62403H174.719L173.76 12.728ZM180.037 16.4V7.47203H177.852V6.32003H183.913V7.47203H181.728V16.4H180.037ZM184.903 16.4V6.32003H186.594V10.712H189.132V6.32003H190.823V16.4H189.132V11.864H186.594V16.4H184.903ZM192.649 16.4V6.32003H194.341V16.4H192.649ZM199.131 16.544C198.369 16.544 197.749 16.3904 197.27 16.0832C196.791 15.7664 196.429 15.2288 196.184 14.4704C195.94 13.712 195.818 12.6752 195.818 11.36C195.818 10.0448 195.935 9.00802 196.17 8.24963C196.415 7.49123 196.767 6.95843 197.228 6.65123C197.688 6.33443 198.275 6.17603 198.99 6.17603C199.45 6.17603 199.882 6.20483 200.287 6.26243C200.691 6.32003 201.01 6.38723 201.245 6.46403V7.25603H199.554C198.896 7.25603 198.388 7.55843 198.031 8.16323C197.683 8.76803 197.51 9.83362 197.51 11.36C197.51 12.4064 197.594 13.232 197.763 13.8368C197.942 14.432 198.186 14.8544 198.496 15.104C198.816 15.344 199.215 15.464 199.694 15.464H201.386V16.256C201.151 16.3328 200.832 16.4 200.427 16.4576C200.023 16.5152 199.591 16.544 199.131 16.544ZM203.784 16.4V7.47203H201.599V6.32003H207.66V7.47203H205.475V16.4H203.784ZM211.116 16.544C210.581 16.544 210.12 16.52 209.735 16.472C209.359 16.4336 208.997 16.3616 208.65 16.256V6.32003H210.341V10.352C210.51 10.3136 210.722 10.28 210.975 10.2512C211.239 10.2224 211.427 10.208 211.539 10.208C212.498 10.208 213.217 10.472 213.696 11C214.185 11.528 214.429 12.344 214.429 13.448C214.429 14.504 214.166 15.2864 213.64 15.7952C213.113 16.2944 212.272 16.544 211.116 16.544ZM211.116 15.464C211.662 15.464 212.066 15.3056 212.329 14.9888C212.601 14.6624 212.738 14.1488 212.738 13.448C212.738 12.68 212.606 12.1424 212.343 11.8352C212.08 11.5184 211.671 11.36 211.116 11.36H210.341V15.464H211.116Z" fill="#E01F2D"/>
</g>
<line y1="43.5" x2="595" y2="43.5" stroke="#F5F5F5"/>
<g clip-path="url(#clip1_667_6532)">
<path d="M481.074 19.1422L482.679 14.7596L484.182 19.177H481.074V19.1422ZM485.753 23.5944H487.222L483.396 12.9857H481.962L478 23.5944H479.469L480.63 20.3248H484.592L485.753 23.5944ZM492.687 21.3335C492.687 22.2031 492.004 22.6553 490.808 22.6553C489.852 22.6553 489.237 22.377 488.861 21.7509L487.461 21.9944C488.007 23.1422 489.135 23.664 490.74 23.664C492.926 23.664 494.053 22.4466 494.053 21.1249C494.053 19.4553 492.516 19.0031 490.774 18.6205C489.92 18.4466 488.93 18.1335 488.93 17.3683C488.93 16.8118 489.442 16.1857 490.501 16.1857C491.56 16.1857 492.208 16.9162 492.311 17.2292L493.54 16.7075C492.96 15.5944 491.833 15.177 490.671 15.177C488.827 15.177 487.632 16.0814 487.632 17.5422C487.632 19.2118 489.032 19.5248 490.398 19.8379C491.56 20.1509 492.687 20.4292 492.687 21.3335ZM496.99 12.9857L495.624 13.577V15.5248H494.36V16.6379H495.624V21.8205C495.59 22.864 495.59 23.6292 497.161 23.6292C497.673 23.6292 498.22 23.5248 498.459 23.4901V22.4118C498.186 22.4814 497.844 22.5857 497.605 22.5857C497.024 22.5857 497.024 22.1683 497.024 21.2292V16.6379H498.459V15.5248H497.024V12.9857H496.99ZM499.62 15.5248V23.5944H500.952V19.8727C500.952 19.177 500.918 18.377 501.294 17.7857C501.738 17.0553 502.352 16.8118 503.685 16.777V15.3857C503.138 15.4205 501.738 15.4205 500.986 16.9509V15.5248H499.62ZM511.506 12.9857V14.3075H517.449L511.54 22.2379V23.6292H519.157V22.3422H513.111L519.02 14.3422V13.0205H511.506V12.9857ZM527.49 15.5248V23.5944H528.823V19.0031C528.823 18.4118 528.823 17.7857 529.403 17.1944C529.813 16.777 530.325 16.5683 530.906 16.5683C531.623 16.5683 532.375 16.9162 532.614 17.6814C532.682 17.9596 532.682 18.2031 532.682 19.0031V23.5596H534.014V18.8292C534.014 18.1335 534.014 17.6466 533.877 17.1944C533.502 15.8727 532.272 15.3509 531.282 15.3509C530.804 15.3509 529.54 15.4553 528.823 16.777V15.5596H527.49V15.5248ZM548.12 21.6466C547.847 22.2031 547.335 22.6901 546.276 22.6901C545.388 22.6901 543.885 22.1335 543.885 19.4553C543.885 18.7248 544.021 16.2205 546.207 16.2205C547.3 16.2205 547.813 16.8466 548.052 17.3683L549.281 16.8466C548.53 15.5596 547.13 15.2466 546.139 15.2466C543.612 15.2466 542.382 17.2988 542.382 19.5944C542.382 21.577 543.441 23.7683 546.242 23.7683C547.847 23.7683 548.769 22.9683 549.247 22.1683L548.12 21.6466ZM521.069 18.7248H525.27C525.168 16.6031 523.973 16.2553 523.153 16.2553C522.026 16.2553 521.24 17.0901 521.069 18.7248ZM526.363 22.064C525.919 22.864 525.031 23.7335 523.324 23.7335C521.001 23.7335 519.635 22.1335 519.635 19.4205C519.635 16.3944 521.582 15.2466 523.255 15.2466C524.724 15.2466 526.09 16.0814 526.568 18.0988C526.705 18.7944 526.705 19.3857 526.705 19.7335H521.035C521.001 21.0901 521.548 22.7944 523.426 22.7596C524.177 22.7596 524.724 22.377 525.065 21.8553L526.363 22.064ZM536.2 18.7248H540.401C540.299 16.6031 539.103 16.2553 538.283 16.2553C537.122 16.2553 536.337 17.0901 536.2 18.7248ZM541.46 22.064C541.016 22.864 540.128 23.7335 538.42 23.7335C536.098 23.7335 534.731 22.1335 534.731 19.4205C534.731 16.3944 536.678 15.2466 538.352 15.2466C539.82 15.2466 541.187 16.0814 541.665 18.0988C541.801 18.7944 541.801 19.3857 541.801 19.7335H536.098C536.063 21.0901 536.61 22.7944 538.488 22.7596C539.24 22.7596 539.786 22.377 540.128 21.8553L541.46 22.064ZM556.59 23.5944H555.19C555.19 23.5944 555.054 23.0379 555.019 22.4118C554.61 22.8292 553.858 23.6988 552.355 23.6988C550.818 23.6988 549.691 22.7596 549.691 21.4031C549.691 20.9857 549.794 20.5335 550.033 20.1857C550.477 19.4901 551.331 18.9683 553.687 18.7596L554.951 18.6553V18.4466C554.951 17.6118 554.951 16.2205 553.175 16.2205C552.082 16.2205 551.672 16.777 551.57 17.264L550.34 16.7422C550.374 16.7075 550.374 16.6379 550.408 16.6031C550.887 15.7335 551.809 15.177 553.141 15.177C553.858 15.177 554.814 15.3509 555.429 15.8727C556.317 16.5683 556.283 17.8901 556.283 17.8901L556.351 22.0292C556.351 22.064 556.42 23.2466 556.59 23.5944ZM554.746 21.3683C554.951 20.9162 554.951 20.7422 554.951 19.5596C554.439 19.6292 553.721 19.7335 552.868 19.9422C551.399 20.2553 551.16 20.8466 551.16 21.4031C551.16 22.064 551.672 22.5857 552.663 22.5857C553.585 22.5857 554.37 22.2031 554.746 21.3683ZM510.584 23.5944H509.218C509.218 23.5944 509.081 23.0379 509.047 22.4118C508.637 22.8292 507.886 23.6988 506.383 23.6988C504.846 23.6988 503.685 22.7596 503.685 21.4031C503.685 20.9857 503.787 20.5335 504.026 20.1857C504.47 19.4901 505.324 18.9683 507.681 18.7596L508.944 18.6553V18.4466C508.944 17.6118 508.944 16.2205 507.168 16.2205C506.041 16.2205 505.665 16.777 505.563 17.264L504.333 16.7422C504.368 16.7075 504.368 16.6379 504.402 16.6031C504.88 15.7335 505.802 15.177 507.134 15.177C507.851 15.177 508.808 15.3509 509.423 15.8727C510.311 16.5683 510.276 17.8901 510.276 17.8901L510.311 22.0292C510.345 22.064 510.413 23.2466 510.584 23.5944ZM508.774 21.3683C508.979 20.9162 508.979 20.7422 508.979 19.5596C508.466 19.6292 507.749 19.7335 506.895 19.9422C505.426 20.2553 505.187 20.8466 505.187 21.4031C505.187 22.064 505.7 22.5857 506.69 22.5857C507.578 22.5857 508.364 22.2031 508.774 21.3683Z" fill="#8A0051"/>
<path d="M565.232 16.8119C565.027 16.951 564.822 17.0902 564.617 17.2293C562.226 15.8728 557.103 13.2641 556.659 13.0554C556.181 12.8119 555.361 12.4641 555.463 11.6641C555.6 10.551 557.547 8.08146 558.367 7.03798C562.807 1.54233 564.788 -0.162019 566.086 0.0118939C567.486 0.185807 568.272 1.68146 568.374 8.56842C567.588 8.32494 566.735 8.08146 565.812 7.83798C565.744 6.82929 565.539 5.33363 565.471 4.8119C565.403 4.22059 565.266 4.0119 565.061 3.97711C564.788 3.94233 564.139 4.56842 563.558 5.1945C563.285 5.47276 562.534 6.23798 561.714 7.10755C561.031 7.07276 560.553 7.21189 560.313 7.55972C560.108 7.83798 560.074 8.22059 560.177 8.70755C559.733 9.15972 559.357 9.54233 559.084 9.82059C558.162 10.7597 557.171 11.5249 557.137 11.9075C557.103 12.2206 557.547 12.5336 558.23 12.951C559.801 13.8206 563.797 16.0467 565.232 16.8119ZM571.448 9.92494C569.877 9.36842 566.017 7.90755 561.953 7.35103C560.553 7.17711 560.006 7.66407 560.553 9.02059C561.133 10.3771 562.602 12.6032 564.139 14.3075C565.676 15.9771 567.349 16.4293 567.896 13.8554C567.93 13.751 567.93 13.6815 567.964 13.5771C568.101 12.9162 568.203 12.2554 568.237 11.6989C567.554 11.3858 566.769 11.038 566.017 10.7249C566.051 11.3162 566.12 12.3597 566.154 13.1249C566.154 13.2293 566.154 13.3336 566.154 13.4032C566.188 14.6902 565.778 14.6902 565.061 14.1684C564.241 13.5771 561.68 10.1336 561.372 8.6032C561.372 8.49885 561.406 8.49885 561.441 8.53363C561.475 8.53363 561.475 8.53363 561.509 8.56842C562.089 8.81189 564.002 9.57711 565.949 10.4119C566.735 10.7597 567.52 11.0728 568.203 11.4206C568.886 11.7336 569.501 12.0467 569.979 12.2902C570.833 12.7423 571.141 13.0554 570.799 13.438C569.057 15.2467 562.909 17.8206 560.792 21.0206C560.792 21.0206 560.792 21.0206 560.757 21.0554C560.723 21.0902 560.723 21.1249 560.689 21.1597C560.689 21.1597 560.689 21.1945 560.655 21.1945C560.553 21.4032 560.416 21.7162 560.348 22.1336C560.245 22.8293 560.621 23.4554 561.611 23.7336C561.85 23.8032 562.124 23.8728 562.431 23.9075C562.499 23.9075 562.533 23.9075 562.602 23.9075C564.48 24.0119 569.399 22.8989 570.867 22.238C572.404 21.5423 571.96 20.8467 571.516 20.4989C571.175 20.2206 569.467 19.2467 568.647 18.7945C568.408 18.9336 568.237 19.038 568.032 19.2119C569.433 20.0815 570.013 20.5336 570.355 20.7771C570.492 20.8815 570.423 20.9858 570.218 21.0206C570.184 21.0206 570.116 21.0206 570.082 21.0206C568.75 21.1249 566.188 21.2989 564.993 21.3684C564.822 21.3684 564.617 21.4032 564.514 21.4032C564.822 21.1249 565.129 20.8815 565.3 20.7423C567.862 18.8989 572.131 16.3249 573.395 15.2119C574.351 14.3423 576.879 11.838 571.448 9.92494Z" fill="#EFAB00"/>
</g>
<path fill-rule="evenodd" clip-rule="evenodd" d="M437.816 16.8896C437.703 17.0214 437.115 18.2139 436.509 19.5396C435.903 20.8654 435.408 21.9862 435.408 22.0306C435.408 22.0748 435.666 22.1107 435.983 22.1103C436.474 22.1094 436.59 22.0523 436.779 21.7172C436.989 21.3435 437.045 21.3248 437.965 21.3208C438.896 21.317 438.938 21.331 439.134 21.7139C439.313 22.0626 439.412 22.1111 439.943 22.1111C440.276 22.1111 440.548 22.0898 440.548 22.0639C440.548 22.0379 440 20.8293 439.329 19.378C438.659 17.9269 438.09 16.7194 438.066 16.6947C438.041 16.6701 437.929 16.7577 437.816 16.8896ZM449.023 16.7996C448.737 16.8692 448.326 17.0527 448.111 17.2072C447.896 17.3618 447.567 17.7507 447.381 18.0714C447.127 18.509 447.042 18.8487 447.042 19.4318C447.042 19.8593 447.124 20.4076 447.225 20.6504C447.325 20.8931 447.625 21.2838 447.89 21.5187C448.155 21.7535 448.598 22.0211 448.875 22.1134C449.169 22.2111 449.659 22.2477 450.05 22.201C450.419 22.1569 450.912 22.0082 451.146 21.8706C451.379 21.7329 451.75 21.3624 451.969 21.0474C452.27 20.6153 452.382 20.2791 452.425 19.6785C452.47 19.0572 452.42 18.7581 452.197 18.3181C452.04 18.0077 451.775 17.6235 451.608 17.4641C451.44 17.3048 451.151 17.0947 450.965 16.9973C450.779 16.9 450.384 16.7872 450.086 16.7467C449.788 16.7063 449.31 16.73 449.023 16.7996ZM453.463 16.819C453.425 16.9193 453.411 18.1359 453.431 19.5222L453.468 22.0428L454.038 22.0846L454.609 22.1264L454.647 20.6601L454.686 19.1938L456.198 20.7207C457.031 21.5605 457.776 22.2476 457.856 22.2476C457.953 22.2476 458 21.3581 458 19.51V16.7723L457.425 16.8144L456.85 16.8563L456.782 18.2137L456.715 19.571L455.315 18.2137C454.545 17.4671 453.829 16.8069 453.724 16.7464C453.605 16.678 453.507 16.7055 453.463 16.819ZM412.004 19.4496V22.1111H412.545H413.086V21.1619V20.2127L413.999 20.1724L414.912 20.132V19.5905V19.0492L414.272 19.089C413.921 19.1108 413.51 19.0892 413.359 19.041C413.146 18.9727 413.086 18.8355 413.086 18.4168V17.8799H414.236H415.386V17.334V16.788H413.695H412.004V19.4496ZM416.288 16.8791C416.238 16.929 416.197 18.1267 416.197 19.5406V22.1111H417.964H419.731L419.689 21.5992L419.647 21.0874L418.531 21.0478L417.415 21.0081V20.5421V20.0762L418.328 20.0359L419.241 19.9955L419.283 19.4154L419.324 18.8354H418.37H417.415V18.3577V17.8799H418.565H419.715V17.334V16.788H418.046C417.129 16.788 416.337 16.829 416.288 16.8791ZM420.797 19.4496V22.1111H422.087C422.941 22.1111 423.544 22.0402 423.874 21.9012C424.148 21.7857 424.489 21.586 424.633 21.4576C424.776 21.329 425.006 20.9782 425.142 20.678C425.279 20.3777 425.392 19.8383 425.394 19.4793C425.395 19.1203 425.31 18.6167 425.203 18.3601C425.097 18.1035 424.808 17.7074 424.561 17.4796C424.314 17.252 423.898 17.0036 423.638 16.9277C423.378 16.8516 422.632 16.7893 421.981 16.7889L420.797 16.788V19.4496ZM426.479 19.4496V22.1111H428.17H429.861V21.5651V21.0192H428.711H427.561V20.5477V20.0762L428.474 20.0359L429.388 19.9955L429.429 19.4154L429.471 18.8354H428.516H427.561V18.3577V17.8799H428.711H429.861V17.334V16.788H428.17H426.479V19.4496ZM430.943 19.4496V22.1111H431.552H432.161V21.0874C432.161 20.1517 432.184 20.0638 432.434 20.0638C432.641 20.0638 432.824 20.3122 433.188 21.0874L433.67 22.1111H434.345H435.021L434.48 21.1215L433.938 20.132L434.47 19.5572C434.884 19.1096 435.002 18.8741 435.002 18.4926C435.002 18.2232 434.909 17.8228 434.797 17.6025C434.684 17.3823 434.413 17.1089 434.195 16.9951C433.913 16.8484 433.382 16.788 432.371 16.788H430.943V19.4496ZM440.413 17.3221C440.413 17.8623 440.415 17.8644 440.988 17.9063L441.563 17.9482L441.6 20.0296L441.638 22.1111H442.243H442.848V20.0033V17.8956L443.423 17.8536C443.982 17.8129 443.998 17.7985 443.998 17.334V16.8563L442.206 16.8182L440.413 16.7801V17.3221ZM444.877 19.4496V22.1268L445.452 22.0847L446.027 22.0428V19.4496V16.8563L445.452 16.8144L444.877 16.7723V19.4496ZM423.719 18.344C424.112 18.7401 424.179 18.902 424.179 19.4496C424.179 19.9971 424.112 20.159 423.719 20.5551C423.316 20.9616 423.174 21.0192 422.569 21.0192H421.879V19.5406C421.879 18.7273 421.92 18.0209 421.97 17.971C422.019 17.9209 422.329 17.8799 422.659 17.8799C423.161 17.8799 423.334 17.9558 423.719 18.344ZM433.789 18.1621C433.905 18.3815 433.891 18.518 433.723 18.7763C433.542 19.0544 433.398 19.1083 432.834 19.1083H432.161V18.4941V17.8799H432.9C433.509 17.8799 433.666 17.9298 433.789 18.1621ZM450.529 18.1535C450.773 18.3033 451.031 18.5835 451.104 18.7761C451.176 18.9686 451.236 19.3432 451.236 19.6086C451.236 19.9753 451.125 20.2024 450.776 20.5551C450.425 20.9088 450.201 21.0192 449.835 21.0192C449.571 21.0192 449.2 20.9483 449.012 20.8617C448.824 20.7751 448.54 20.4339 448.381 20.1036C448.118 19.5548 448.109 19.4599 448.283 19.0008C448.388 18.7208 448.673 18.3616 448.927 18.1892C449.177 18.0192 449.54 17.8802 449.734 17.8805C449.927 17.8808 450.285 18.0036 450.529 18.1535ZM438.291 19.7272C438.417 19.9925 438.519 20.2382 438.519 20.2731C438.519 20.3081 438.276 20.3367 437.978 20.3367C437.68 20.3367 437.437 20.3041 437.437 20.2641C437.437 20.2241 437.525 19.9784 437.633 19.7182C437.741 19.4579 437.882 19.2448 437.946 19.2448C438.01 19.2448 438.166 19.4618 438.291 19.7272Z" fill="black"/>
<path fill-rule="evenodd" clip-rule="evenodd" d="M414.2 2.77336C413.979 3.24765 413.725 3.86185 413.635 4.13824C413.545 4.41449 413.392 4.64065 413.296 4.64065C413.194 4.64065 413.082 4.39675 413.029 4.06058C412.979 3.74147 412.845 3.15798 412.732 2.76394C412.529 2.05884 412.517 2.04738 412.002 2.04738H411.479L411.663 2.62745C411.765 2.94656 412.107 4.14425 412.424 5.28897C412.741 6.4337 413.042 7.37042 413.092 7.37042C413.143 7.37042 413.353 6.98661 413.559 6.51737C413.764 6.04826 414.087 5.34179 414.275 4.94775C414.464 4.55371 414.67 4.23119 414.734 4.23119C414.798 4.23119 414.908 4.36932 414.978 4.53829C415.048 4.70726 415.343 5.38656 415.633 6.04812C415.923 6.70955 416.208 7.26232 416.267 7.27652C416.325 7.29058 416.459 7.0565 416.565 6.75622C416.671 6.45595 416.93 5.56536 417.142 4.77714C417.354 3.98892 417.617 3.05234 417.728 2.6957L417.93 2.04738H417.407C416.906 2.04738 416.878 2.0714 416.734 2.62745C416.651 2.94656 416.492 3.53005 416.381 3.92409C416.269 4.31813 416.128 4.64065 416.067 4.64065C416.006 4.64065 415.854 4.37969 415.728 4.06058C415.603 3.74147 415.345 3.12727 415.154 2.6957C414.964 2.26412 414.761 1.91089 414.704 1.91089C414.646 1.91089 414.419 2.29892 414.2 2.77336ZM420.207 2.11084C419.919 2.21417 419.511 2.46599 419.3 2.67031C419.089 2.87463 418.821 3.24192 418.706 3.48651C418.591 3.7311 418.497 4.25043 418.497 4.64065C418.497 5.03087 418.595 5.55867 418.715 5.8135C418.835 6.06832 419.139 6.45895 419.39 6.68143C419.641 6.9039 420.106 7.15791 420.423 7.24594C420.855 7.36592 421.184 7.36769 421.736 7.25345C422.25 7.14699 422.611 6.96682 422.936 6.65563C423.191 6.41063 423.484 6.01263 423.586 5.77105C423.689 5.52947 423.773 5.02077 423.773 4.64065C423.773 4.26053 423.689 3.75184 423.586 3.51026C423.484 3.26867 423.195 2.87695 422.944 2.63987C422.693 2.40279 422.245 2.1421 421.947 2.06062C421.649 1.97913 421.254 1.91471 421.068 1.91758C420.882 1.92058 420.494 2.00739 420.207 2.11084ZM424.991 4.62892V7.23393H425.458H425.926L425.966 6.24439C426.004 5.29634 426.019 5.25485 426.337 5.25485C426.613 5.25485 426.747 5.41768 427.148 6.23934L427.629 7.22397L428.204 7.22888C428.52 7.23175 428.779 7.19667 428.779 7.15108C428.779 7.1055 428.551 6.64171 428.271 6.12059L427.764 5.17296L428.153 4.88319C428.367 4.72377 428.625 4.39279 428.726 4.1478C428.828 3.90266 428.875 3.52309 428.832 3.3043C428.788 3.08537 428.612 2.72832 428.441 2.51089C428.133 2.12149 428.105 2.11494 426.56 2.06976L424.991 2.0239V4.62892ZM429.996 4.64065V7.23393H431.552H433.108V6.75622V6.27851H432.093H431.079V4.16295V2.04738H430.537H429.996V4.64065ZM434.055 4.64065V7.25809L435.509 7.21182C436.882 7.16828 436.993 7.14289 437.492 6.758C437.782 6.53375 438.131 6.10381 438.267 5.80258C438.402 5.50135 438.513 4.97846 438.513 4.64065C438.513 4.30285 438.402 3.77996 438.267 3.47873C438.131 3.1775 437.782 2.74756 437.492 2.52331C436.993 2.13841 436.882 2.11303 435.509 2.06949L434.055 2.02322V4.64065ZM421.866 3.20057C422.074 3.30935 422.345 3.55284 422.468 3.74174C422.591 3.93051 422.691 4.33506 422.691 4.64065C422.691 4.94625 422.591 5.3508 422.468 5.53957C422.345 5.72847 422.074 5.97196 421.866 6.08074C421.657 6.18952 421.329 6.27851 421.135 6.27851C420.942 6.27851 420.613 6.18952 420.405 6.08074C420.196 5.97196 419.925 5.72847 419.802 5.53957C419.68 5.3508 419.579 4.94625 419.579 4.64065C419.579 4.33506 419.679 3.93105 419.802 3.74283C419.924 3.55448 420.183 3.31344 420.377 3.20712C420.571 3.10079 420.9 3.01126 421.108 3.00825C421.316 3.00525 421.657 3.09179 421.866 3.20057ZM427.669 3.16658C427.759 3.25666 427.832 3.46208 427.832 3.62313C427.832 3.78419 427.717 4.02113 427.576 4.14984C427.39 4.31909 427.137 4.37218 426.662 4.34161L426.005 4.29943L425.964 3.65111L425.923 3.00279H426.715C427.151 3.00279 427.58 3.0765 427.669 3.16658ZM436.719 3.26977C437.012 3.44979 437.205 3.71403 437.316 4.08815C437.444 4.52109 437.444 4.76022 437.316 5.19316C437.205 5.56727 437.012 5.83152 436.719 6.01154C436.451 6.17628 436.042 6.27769 435.644 6.27797L435.002 6.27851V4.64065V3.00279L435.644 3.00334C436.042 3.00361 436.451 3.10502 436.719 3.26977ZM423.871 9.99782C423.684 10.3919 423.304 11.2057 423.028 11.8063C422.751 12.4068 422.349 13.2716 422.134 13.7279C421.92 14.1842 421.744 14.6025 421.744 14.6574C421.744 14.7124 421.972 14.7382 422.25 14.7149C422.648 14.6816 422.795 14.5923 422.934 14.2972C423.107 13.9318 423.142 13.9219 424.247 13.9219C425.352 13.9219 425.387 13.9318 425.559 14.2972C425.699 14.5923 425.845 14.6816 426.243 14.7149C426.522 14.7382 426.749 14.7162 426.749 14.6661C426.749 14.616 426.574 14.1978 426.359 13.7366C426.145 13.2754 425.711 12.3454 425.395 11.6698C425.08 10.9942 424.709 10.1803 424.573 9.86133C424.436 9.54236 424.299 9.28126 424.267 9.28126C424.236 9.28126 424.058 9.60378 423.871 9.99782ZM412.004 12.0875V14.7573L412.511 14.7149L413.018 14.6725L413.086 13.5806L413.153 12.4887H414.236H415.318L415.357 13.6227L415.397 14.7566L415.899 14.7146L416.4 14.6725L416.437 12.0451L416.474 9.41774H415.935H415.397L415.358 10.4755L415.318 11.5333H414.236H413.153L413.114 10.4755L413.074 9.41774H412.539H412.004V12.0875ZM417.987 12.0451L418.024 14.6725H419.58L421.203 14.6574V14.1992V13.6489H420.053H418.903V13.1985C418.903 12.9507 418.903 12.4205 418.903 12.4205C418.903 12.4205 419.597 12.4205 420.08 12.4205H420.932V12.011V11.6016H420.069C419.484 11.6016 418.971 11.6016 418.971 11.6016C418.971 11.6016 418.947 10.6128 418.971 10.4018C418.971 10.4018 418.975 10.4413 420.087 10.4018L421.203 10.3621V9.88999V9.41774H419.576H417.95L417.987 12.0451ZM427.561 12.0757V14.7573L428.065 14.7149L428.568 14.6725L428.528 14.0223C428.506 13.6647 428.528 13.1851 428.578 12.9567C428.649 12.6303 428.731 12.5503 428.96 12.5833C429.166 12.6128 429.383 12.8843 429.691 13.4968C429.932 13.9763 430.198 14.4522 430.282 14.5546C430.366 14.657 430.631 14.7408 430.87 14.7408C431.109 14.7408 431.338 14.7065 431.38 14.6646C431.421 14.6226 431.219 14.1543 430.93 13.6239L430.404 12.6595L430.944 12.1307C431.409 11.6753 431.484 11.5214 431.481 11.0216C431.478 10.5857 431.38 10.3227 431.085 9.9637L430.693 9.48599L429.127 9.44013L427.561 9.39427V12.0757ZM432.161 9.88767C432.161 10.3429 432.179 10.3588 432.736 10.3995L433.311 10.4414L433.378 12.557L433.446 14.6725H433.92H434.393L434.43 12.5229L434.468 10.3732H435.073C435.675 10.3732 435.678 10.3703 435.678 9.89545V9.41774H433.92H432.161V9.88767ZM430.267 10.6461C430.416 10.7963 430.537 10.9669 430.537 11.0252C430.537 11.0836 430.443 11.2678 430.327 11.4346C430.153 11.6848 429.987 11.738 429.382 11.738C428.712 11.738 428.641 11.7083 428.564 11.3968C428.517 11.2092 428.517 10.9021 428.564 10.7144C428.64 10.4076 428.717 10.3732 429.322 10.3732C429.816 10.3732 430.069 10.4462 430.267 10.6461ZM424.582 12.142C424.733 12.4393 424.856 12.7464 424.856 12.8245C424.856 12.9026 424.578 12.9664 424.238 12.9664C423.659 12.9664 423.626 12.9468 423.714 12.6593C423.765 12.4904 423.893 12.1833 423.997 11.9769C424.101 11.7705 424.214 11.6016 424.247 11.6016C424.281 11.6016 424.432 11.8448 424.582 12.142Z" fill="#E01F2D"/>
<path d="M392.677 0.472796C393.122 0.356235 393.833 0.209783 394.256 0.147135C394.679 0.0844866 395.284 0.0257955 395.6 0.0166508L396.175 0V0.81893C396.175 1.26934 396.128 1.63786 396.07 1.63786C396.013 1.63786 395.48 1.69928 394.887 1.77435C394.293 1.84942 393.35 2.05333 392.791 2.22735C392.232 2.40151 391.335 2.80251 390.799 3.11862C390.263 3.43459 389.448 4.04442 388.988 4.47381C388.529 4.90307 387.932 5.56162 387.663 5.93697C387.394 6.31245 387.005 6.93975 386.799 7.33092C386.593 7.72196 386.266 8.55113 386.074 9.17351C385.785 10.1076 385.721 10.5904 385.709 11.9427C385.697 13.2873 385.751 13.7762 386.011 14.6725C386.185 15.273 386.577 16.2558 386.883 16.8563C387.312 17.7014 387.73 18.2425 388.729 19.2507C389.728 20.259 390.265 20.6799 391.102 21.1134C391.698 21.4216 392.672 21.8149 393.267 21.9877C394.1 22.2297 394.691 22.3022 395.837 22.3031C397.071 22.3044 397.545 22.2395 398.61 21.9238C399.317 21.7145 400.231 21.3524 400.64 21.1191C401.049 20.886 401.688 20.4675 402.06 20.1895C402.432 19.9113 402.954 19.4468 403.221 19.1572C403.487 18.8676 403.89 18.385 404.117 18.0847C404.343 17.7844 404.742 17.1088 405.003 16.5833C405.263 16.0578 405.606 15.1228 405.764 14.5054C405.922 13.8882 406.051 13.0129 406.051 12.5605V11.738H406.944H407.837L407.743 12.7275C407.691 13.2718 407.561 14.147 407.455 14.6725C407.349 15.198 407.076 16.0793 406.85 16.6311C406.623 17.1828 406.169 18.0579 405.84 18.5759C405.51 19.0939 404.83 19.9371 404.327 20.4498C403.824 20.9624 403.027 21.644 402.556 21.9644C402.084 22.2848 401.245 22.7552 400.692 23.0096C400.139 23.264 399.064 23.6022 398.303 23.7612C397.171 23.9976 396.637 24.0361 395.364 23.9729C394.508 23.9304 393.38 23.7802 392.858 23.6392C392.335 23.4981 391.514 23.2076 391.032 22.9936C390.55 22.7796 389.881 22.4204 389.546 22.1956C389.212 21.9707 388.702 21.5986 388.413 21.3687C388.124 21.139 387.698 20.7593 387.466 20.525C387.234 20.2908 386.856 19.8608 386.626 19.5696C386.396 19.2784 386.034 18.7637 385.82 18.4259C385.607 18.0881 385.265 17.46 385.061 17.0301C384.858 16.6001 384.624 16.0166 384.543 15.7334C384.461 15.4502 384.306 14.7271 384.198 14.1265C384.089 13.526 384 12.553 384 11.9642C384 11.3753 384.122 10.2867 384.272 9.5449C384.422 8.80309 384.747 7.74926 384.995 7.20317C385.242 6.65708 385.679 5.8417 385.966 5.39129C386.252 4.94088 386.947 4.10802 387.509 3.54051C388.072 2.97299 388.897 2.2728 389.344 1.9844C389.79 1.69614 390.54 1.28558 391.011 1.07239C391.482 0.859056 392.231 0.58922 392.677 0.472796Z" fill="#E01F2D"/>
<path d="M392.452 4.28778C393.002 4.03173 393.775 3.76353 394.171 3.69201C394.566 3.62049 395.499 3.58773 396.243 3.61926C396.987 3.65092 397.839 3.74688 398.137 3.83259C398.435 3.91831 399.104 4.19278 399.625 4.44256C400.146 4.69233 400.927 5.21699 401.361 5.6083C401.795 5.99975 402.38 6.63456 402.662 7.01905C402.943 7.40353 403.361 8.14848 403.589 8.67437C403.834 9.23534 404.075 10.1188 404.175 10.8118C404.305 11.7224 404.309 12.2586 404.19 13.1521C404.1 13.8362 403.867 14.7143 403.622 15.2946C403.394 15.8355 402.984 16.5844 402.712 16.9589C402.439 17.3335 401.998 17.8543 401.732 18.1162C401.466 18.3783 401.005 18.7618 400.707 18.9686C400.41 19.1754 399.848 19.5069 399.459 19.7052C399.069 19.9035 398.369 20.1565 397.903 20.2674C397.436 20.3784 396.735 20.4701 396.344 20.4712L395.634 20.4732V19.6845V18.8957L396.75 18.7258C397.506 18.6109 398.18 18.3985 398.837 18.068C399.415 17.7773 400.113 17.2746 400.562 16.8248C400.977 16.4094 401.497 15.752 401.717 15.3635C401.937 14.9752 402.211 14.2947 402.326 13.8515C402.44 13.4082 402.534 12.5913 402.534 12.0361C402.534 11.481 402.437 10.6494 402.319 10.188C402.201 9.72684 401.896 9.00195 401.64 8.57733C401.385 8.15272 400.824 7.4771 400.394 7.07596C399.964 6.67482 399.271 6.17377 398.855 5.96249C398.439 5.75121 397.62 5.49365 397.036 5.38992C396.265 5.2533 395.731 5.23624 395.093 5.32768C394.609 5.39702 394.015 5.51249 393.772 5.58414C393.53 5.6558 392.982 5.91445 392.555 6.1589C392.128 6.40335 391.429 6.96172 391.001 7.39971C390.573 7.83784 390.223 8.25863 390.223 8.33479C390.223 8.41095 390.102 8.63971 389.954 8.84308C389.806 9.04658 389.563 9.69872 389.413 10.2926C389.263 10.8863 389.141 11.5773 389.141 11.8281V12.2839H388.329H387.517V11.6201C387.517 11.2551 387.579 10.6255 387.655 10.2211C387.73 9.81678 388.001 9.0403 388.257 8.49557C388.513 7.95099 388.891 7.27537 389.098 6.9942C389.305 6.71317 389.691 6.26822 389.954 6.00548C390.218 5.74274 390.663 5.35348 390.944 5.14056C391.224 4.92764 391.903 4.54383 392.452 4.28778Z" fill="#E01F2D"/>
<path d="M392.169 9.30167C392.401 9.05013 392.712 8.79299 392.861 8.7302C393.01 8.66742 393.386 8.61214 393.698 8.60736C394.009 8.60272 394.435 8.66168 394.645 8.73852C394.854 8.8155 395.22 9.10595 395.457 9.38398L395.889 9.88967L396.406 9.32474C396.765 8.93261 397.08 8.72993 397.437 8.66236C397.72 8.60886 398.199 8.59863 398.501 8.63957C398.891 8.69226 399.198 8.85918 399.556 9.21159C399.834 9.48539 400.131 9.94262 400.215 10.2276C400.3 10.5127 400.369 10.9308 400.369 11.1566C400.369 11.3824 400.281 11.8185 400.174 12.1258C400.066 12.433 399.735 13.0174 399.437 13.4246C399.138 13.8316 398.359 14.6219 397.704 15.1805C397.049 15.7393 396.361 16.2963 396.174 16.4183C395.837 16.6382 395.82 16.6284 394.383 15.4144C393.585 14.7402 392.699 13.8675 392.415 13.4751C392.129 13.0827 391.794 12.4993 391.668 12.1789C391.543 11.8582 391.44 11.3914 391.44 11.1414C391.44 10.8914 391.509 10.4781 391.594 10.2228C391.678 9.96774 391.937 9.55309 392.169 9.30167Z" fill="#E01F2D"/>
<defs>
<clipPath id="clip0_667_6532">
<rect width="195" height="20" fill="white" transform="translate(20 2)"/>
</clipPath>
<clipPath id="clip1_667_6532">
<rect width="97" height="24" fill="white" transform="translate(478)"/>
</clipPath>
</defs>
</svg>
