<svg width="40" height="40" viewBox="0 0 40 40" fill="none" xmlns="http://www.w3.org/2000/svg">
<path fill-rule="evenodd" clip-rule="evenodd" d="M1.7494 20.0903C1.7494 10.4278 9.87271 2.61429 19.8689 2.61429C29.865 2.61429 37.9882 10.4278 37.9882 20.0903C37.9882 29.7528 29.865 37.5662 19.8689 37.5662C9.87271 37.5662 1.7494 29.7528 1.7494 20.0903ZM19.8689 3.23929C10.196 3.23929 2.3744 10.7945 2.3744 20.0903C2.3744 29.3861 10.196 36.9412 19.8689 36.9412C29.5417 36.9412 37.3632 29.3861 37.3632 20.0903C37.3632 10.7945 29.5417 3.23929 19.8689 3.23929Z" fill="#F5F5F5"/>
<path fill-rule="evenodd" clip-rule="evenodd" d="M17.8257 11.1111C18.504 10.5704 19.3598 10.3125 20.391 10.3125C21.3129 10.3125 21.8939 10.8214 22.2282 11.4228C22.5544 12.0096 22.6586 12.699 22.6586 13.1573V14.1313C22.6586 14.6926 22.4418 15.6469 21.6785 16.2488L22.1542 17.1504C22.5706 17.2071 23.1238 17.3556 23.6185 17.6455C24.1902 17.9805 24.7146 18.5254 24.8073 19.356C24.9006 20.1928 25.2305 21.3218 25.7478 22.2589C26.2755 23.2148 26.9403 23.8703 27.6592 23.9498C28.6022 24.0542 29.1378 24.4375 29.3142 24.9648C29.4793 25.4584 29.2855 25.9688 29.0184 26.235C28.9268 26.3262 28.8107 26.3585 28.7303 26.372C28.6648 26.3831 28.5948 26.3863 28.5238 26.3844V29.248H18.8376C18.3553 29.281 17.7408 29.3147 17.0789 29.3391C16.1024 29.3751 15.0172 29.391 14.0998 29.3536C13.6416 29.3349 13.2193 29.3027 12.8706 29.2517C12.5358 29.2028 12.2234 29.1309 12.0193 29.0089C11.4744 28.6831 11.3893 28.1186 11.4547 27.646C11.5009 27.3116 11.6244 26.9818 11.7558 26.7174C11.6898 26.7321 11.6271 26.7436 11.5684 26.7516C11.473 26.7646 11.3758 26.77 11.2855 26.7595C11.2028 26.7499 11.0789 26.7216 10.9816 26.6245C10.8281 26.4716 10.722 26.2395 10.6681 25.9999C10.6128 25.7536 10.6045 25.4649 10.68 25.179C10.7565 24.8897 10.9187 24.6047 11.1986 24.3792C11.4773 24.1548 11.8549 24.0036 12.3408 23.9498C13.0597 23.8703 13.7245 23.2148 14.2522 22.2589C14.7695 21.3218 15.0994 20.1928 15.1927 19.356C15.2854 18.5254 15.8098 17.9805 16.3815 17.6455C16.8762 17.3556 17.4294 17.2071 17.8458 17.1504L18.3215 16.2488C17.6353 15.7077 17.3908 14.8818 17.3484 14.3127L16.3069 13.6901L16.3771 13.4568C16.6824 12.4431 17.1502 11.6495 17.8257 11.1111ZM17.9741 14.3001C18.0185 14.8034 18.2618 15.5069 18.8877 15.8814C19.1608 16.0449 19.5215 16.1563 20 16.1563C20.4785 16.1563 20.8392 16.0449 21.1123 15.8814C21.812 15.4627 22.0336 14.6329 22.0336 14.1313V13.5189C21.5291 13.5856 20.7425 13.6646 20 13.6646C19.5838 13.6646 19.1352 13.7809 18.7342 13.9358C18.4278 14.0541 18.1613 14.1902 17.9741 14.3001ZM22.0206 12.89C21.9875 12.5327 21.8873 12.0958 21.6819 11.7264C21.4297 11.2727 21.0332 10.9375 20.391 10.9375C19.4671 10.9375 18.7588 11.1666 18.2153 11.5998C17.715 11.9986 17.3274 12.5917 17.0497 13.406L17.6506 13.7652C17.8683 13.6369 18.168 13.4845 18.5091 13.3528C18.9488 13.183 19.4778 13.0396 20 13.0396C20.7443 13.0396 21.5433 12.9554 22.0206 12.89ZM18.8605 16.5666L18.3674 17.5013C18.4101 17.7784 18.5321 18.1571 18.7689 18.4726C19.0238 18.812 19.4088 19.0781 20 19.0781C21.0389 19.0781 21.608 18.3223 21.6411 17.5172L21.1395 16.5666C20.817 16.7032 20.4389 16.7813 20 16.7813C19.5611 16.7813 19.183 16.7032 18.8605 16.5666ZM22.2409 17.7977C22.0915 18.7886 21.3182 19.7031 20 19.7031C19.1835 19.7031 18.6236 19.32 18.2691 18.8478C18.0132 18.5069 17.8632 18.12 17.7876 17.7924C17.4585 17.8522 17.0549 17.9753 16.6975 18.1847C16.233 18.4568 15.8777 18.8533 15.8139 19.4253C15.7117 20.3416 15.3574 21.5501 14.7994 22.5609C14.2517 23.553 13.4502 24.4558 12.4096 24.571C12.0157 24.6147 11.7579 24.7313 11.5906 24.866C11.4245 24.9998 11.3301 25.1652 11.2843 25.3386C11.2377 25.5153 11.2416 25.7013 11.2779 25.8629C11.3066 25.9907 11.351 26.0841 11.3891 26.1401C11.4114 26.1399 11.4427 26.138 11.4842 26.1323C11.6166 26.1143 11.8055 26.0656 12.0405 25.9812C12.5076 25.8135 13.116 25.5202 13.7465 25.1172C15.0177 24.3047 16.3129 23.0894 16.7692 21.6346L17.3799 21.7281V25.8959H22.6201L22.6201 21.7281L23.2308 21.6346C23.6848 23.0821 24.972 24.1991 26.2387 24.9135C26.8669 25.2678 27.4735 25.5134 27.9395 25.6461C28.1737 25.7127 28.3626 25.748 28.4956 25.7574C28.5471 25.761 28.5839 25.7603 28.608 25.758C28.7167 25.6237 28.794 25.38 28.7215 25.1631C28.6535 24.96 28.407 24.6614 27.5904 24.571C26.5498 24.4558 25.7483 23.553 25.2006 22.5609C24.6426 21.5501 24.2883 20.3416 24.1861 19.4253C24.1223 18.8533 23.767 18.4568 23.3025 18.1847C22.9553 17.9813 22.5646 17.8593 22.2409 17.7977ZM23.2451 25.8959H26.8075C26.5257 25.7725 26.2302 25.6262 25.9317 25.4579C24.9675 24.9142 23.9365 24.119 23.2451 23.0822L23.2451 25.8959ZM27.8988 26.5209H19.1395V28.623H27.8988V26.5209ZM18.5145 28.6427V26.5209H17.3383L17.1874 27.5733L17.3392 28.7034C17.7659 28.6856 18.1661 28.6644 18.5145 28.6427ZM16.7117 28.7262L16.5564 27.5705L16.7026 26.5509L12.367 26.8965C12.2406 27.1282 12.1144 27.4375 12.0738 27.7316C12.0251 28.0836 12.1029 28.3307 12.34 28.4724C12.4275 28.5247 12.6287 28.5847 12.961 28.6333C13.2794 28.6799 13.6777 28.7109 14.1253 28.7291C14.9148 28.7613 15.839 28.7531 16.7117 28.7262ZM16.7549 25.9198L13.079 26.2128C13.3988 26.0544 13.739 25.8638 14.0831 25.6438C15.0426 25.0305 16.067 24.1666 16.7549 23.1017V25.9198ZM11.3497 26.1373C11.3498 26.1373 11.3511 26.1375 11.3535 26.1381C11.3509 26.1377 11.3497 26.1374 11.3497 26.1373Z" fill="#E01F2D"/>
</svg>
