<svg width="41" height="40" viewBox="0 0 41 40" fill="none" xmlns="http://www.w3.org/2000/svg">
<path fill-rule="evenodd" clip-rule="evenodd" d="M17.2096 13.3708C17.7423 12.6023 18.7645 12.2973 19.6196 12.6877L19.6303 12.6926L19.6406 12.6983C19.6894 12.7251 19.7413 12.7536 19.7956 12.7832C20.0278 12.9103 20.3022 13.0604 20.5508 13.2102L20.5534 13.2117L20.5559 13.2133C21.4894 13.8001 22.1417 14.7407 22.3459 15.8038L22.3465 15.8066L22.347 15.8095C22.4194 16.228 22.524 16.6212 22.7234 16.9735L22.7262 16.9785L22.7622 17.0478C22.9004 17.2797 23.0743 17.5145 23.2494 17.717C23.4683 17.9665 23.7109 18.3041 23.8947 18.5721C23.9877 18.7078 24.0676 18.8284 24.1242 18.9151C24.1525 18.9585 24.1751 18.9936 24.1907 19.0178L24.2048 19.0399C24.4931 19.3949 24.6895 19.7443 24.7083 20.1246C24.7275 20.514 24.5581 20.8645 24.2796 21.2131C24.0315 21.5851 23.5352 21.5329 23.2842 21.291L22.1596 20.2069L22.5933 19.7569L23.7179 20.841C23.718 20.841 23.7179 20.841 23.7179 20.841C23.7227 20.8455 23.7297 20.8502 23.7387 20.8535C23.7479 20.8569 23.7567 20.858 23.7632 20.8577C23.7639 20.8577 23.7645 20.8576 23.7651 20.8576L23.7707 20.8485L23.7827 20.8336C24.0228 20.536 24.0927 20.3304 24.084 20.1555C24.0749 19.9719 23.9766 19.7476 23.7092 19.4211L23.697 19.4063L23.6868 19.39L23.6855 19.388L23.6813 19.3814L23.6645 19.3552C23.6498 19.3322 23.6281 19.2986 23.6008 19.2568C23.5462 19.173 23.469 19.0565 23.3793 18.9256C23.1978 18.661 22.9722 18.3486 22.7789 18.1285L22.7774 18.1267C22.5797 17.8981 22.3809 17.6302 22.2201 17.359L22.2156 17.3514L22.1766 17.2762C21.9286 16.8359 21.8089 16.365 21.7316 15.9189C21.5606 15.0328 21.0146 14.2408 20.2257 13.744C19.9901 13.6022 19.7315 13.4607 19.5006 13.3343C19.4488 13.306 19.3984 13.2784 19.35 13.2517C18.7829 12.9989 18.0877 13.1999 17.7225 13.7279L17.7203 13.7311C17.4799 14.0698 17.2482 14.4181 17.0134 14.7711L17.0119 14.7733C16.8553 15.0089 16.6973 15.2465 16.5358 15.4822L17.0049 15.6395L18.3439 16.1004L19.2245 14.6858L19.7551 15.0161L18.6114 16.8535L16.8026 16.2309L15.5424 15.8084L15.7861 15.465C16.0266 15.1263 16.2582 14.778 16.493 14.425L16.4941 14.4233C16.7273 14.0727 16.9635 13.7175 17.2096 13.3708Z" fill="#E01F2D"/>
<path fill-rule="evenodd" clip-rule="evenodd" d="M15.7118 18.6745L16.5668 15.8796L17.1645 16.0625L16.295 18.9045L15.6827 20.1585L15.681 20.1619C15.4255 20.6545 15.6216 21.2577 16.1391 21.5071L16.1497 21.5122L16.1599 21.5181C16.1771 21.5281 16.1968 21.5312 16.2207 21.5254C16.2447 21.5197 16.2649 21.5065 16.2771 21.4935L16.5826 21.0355L18.1438 16.3776L18.7364 16.5763L17.1487 21.3131L16.7819 21.8631L16.7749 21.8721C16.5839 22.1175 16.1984 22.2545 15.8581 22.0654C15.0343 21.662 14.7095 20.6821 15.1243 19.8777L15.7118 18.6745Z" fill="#E01F2D"/>
<path fill-rule="evenodd" clip-rule="evenodd" d="M22.684 17.5078L21.963 21.5229H16.8656V20.8979H21.4402L22.0688 17.3973L22.684 17.5078Z" fill="#E01F2D"/>
<path fill-rule="evenodd" clip-rule="evenodd" d="M17.4071 21.3422L17.9738 21.0788L22.0885 29.9314H24.1961L21.4044 21.3067L21.999 21.1142L25.0554 30.5564H21.6898L17.4071 21.3422Z" fill="#E01F2D"/>
<path fill-rule="evenodd" clip-rule="evenodd" d="M17.6342 21.2413C17.7668 21.2413 17.9236 21.3065 18.0053 21.4641L18.0073 21.468L20.1959 25.8377L16.1353 30.9528L13.7609 29.9001L17.2569 21.4759L17.2631 21.464C17.3448 21.3065 17.5016 21.2413 17.6342 21.2413ZM17.652 22.1544L14.5721 29.5761L15.9465 30.1855L19.4586 25.7613L17.652 22.1544Z" fill="#E01F2D"/>
<path fill-rule="evenodd" clip-rule="evenodd" d="M25.068 29.9314C25.6413 29.7752 26.2284 30.0832 26.3528 30.5629L26.356 30.5754L26.3582 30.5881C26.4212 30.9519 26.2267 31.2668 26.0047 31.4807L25.9496 31.5338L23.1756 32.3508C22.657 32.5008 22.0436 32.2147 21.922 31.6516L21.488 29.9314H25.068ZM25.5866 30.5616C25.4871 30.5136 25.3542 30.4947 25.2087 30.5415L25.1621 30.5564H22.2903L22.5311 31.5109L22.5325 31.5174C22.5646 31.672 22.7725 31.8164 23.0013 31.7506C23.0015 31.7505 23.0017 31.7505 23.0019 31.7504L25.6207 30.9791C25.7226 30.8646 25.7493 30.7709 25.7442 30.7087C25.7294 30.671 25.6832 30.6081 25.5866 30.5616Z" fill="#E01F2D"/>
<path fill-rule="evenodd" clip-rule="evenodd" d="M14.0126 29.3301L14.269 29.4586C15.1995 29.925 16.0931 30.3557 16.989 30.7875C17.5977 31.0214 17.9142 31.6579 17.6752 32.1796C17.503 32.5643 17.0689 32.808 16.6076 32.7589L16.5563 32.7534L13.6957 31.4298L13.6934 31.4287C13.3349 31.2559 13.1065 30.7683 13.3792 30.3632L14.0126 29.3301ZM14.2457 30.1456L13.9036 30.7036L13.8987 30.7107C13.8858 30.7293 13.8812 30.7515 13.8914 30.7823C13.9027 30.8164 13.9296 30.8482 13.9632 30.865L16.7194 32.1402C16.91 32.1431 17.0556 32.0347 17.105 31.9236L17.1067 31.9198C17.164 31.7954 17.1127 31.4998 16.757 31.368L16.7433 31.3628L16.7289 31.3559C15.9121 30.9623 15.0932 30.5676 14.2457 30.1456Z" fill="#E01F2D"/>
<path fill-rule="evenodd" clip-rule="evenodd" d="M17.6629 9.50865C17.6587 9.55988 17.679 9.59758 17.708 9.62091C17.7371 9.64427 17.7867 9.66198 17.8572 9.63931L17.8595 9.63859L20.8728 8.69558L22.3764 9.51812L22.3772 9.51855C22.3946 9.52809 22.4216 9.53033 22.4512 9.51132C22.465 9.50246 22.4728 9.49249 22.4763 9.48579C22.4783 9.48181 22.4792 9.47864 22.4792 9.4748C22.2736 8.34838 21.3037 7.46237 20.1935 7.43078C18.9992 7.39894 17.866 8.29821 17.6629 9.50865ZM17.0446 9.41657C17.2954 7.88543 18.7086 6.76581 20.2105 6.80601L20.2109 6.80602C21.6463 6.84671 22.8479 7.97854 23.0965 9.37624L23.0978 9.38349L23.0987 9.39079C23.1356 9.67549 22.9846 9.91147 22.789 10.0371C22.5938 10.1626 22.3212 10.201 22.0762 10.0663C22.076 10.0662 22.0759 10.0661 22.0757 10.066L20.806 9.3714L18.0472 10.2348C17.5018 10.4091 16.9781 9.98985 17.0426 9.43129L17.0434 9.4239L17.0446 9.41657Z" fill="#E01F2D"/>
<path fill-rule="evenodd" clip-rule="evenodd" d="M19.7827 12.7393C21.1823 12.9487 22.7725 11.6662 22.6886 9.88593L22.0643 9.91536C22.1302 11.3141 20.8729 12.2715 19.8737 12.121L19.8738 12.121L19.8698 12.1204C18.9948 11.9999 18.1984 11.1064 18.2648 9.95478L17.6408 9.91882C17.5573 11.368 18.5593 12.5698 19.7827 12.7393Z" fill="#E01F2D"/>
<path fill-rule="evenodd" clip-rule="evenodd" d="M2.08275 20.0903C2.08275 10.4278 10.206 2.61429 20.2022 2.61429C30.1983 2.61429 38.3215 10.4278 38.3215 20.0903C38.3215 29.7528 30.1983 37.5662 20.2022 37.5662C10.206 37.5662 2.08275 29.7528 2.08275 20.0903ZM20.2022 3.23929C10.5293 3.23929 2.70775 10.7945 2.70775 20.0903C2.70775 29.3861 10.5293 36.9412 20.2022 36.9412C29.875 36.9412 37.6965 29.3861 37.6965 20.0903C37.6965 10.7945 29.875 3.23929 20.2022 3.23929Z" fill="#F5F5F5"/>
</svg>
