<svg width="195" height="36" viewBox="0 0 195 36" fill="none" xmlns="http://www.w3.org/2000/svg">
<g clip-path="url(#clip0_1030_2420)">
<path d="M14.4142 9.11365H14.3798C11.855 9.11365 10.4434 11.0011 9.78927 12.279C9.12361 11.0011 7.72353 9.11365 5.19875 9.11365H5.15289C2.42145 9.13712 0.145009 11.517 0.00731104 14.5299C-0.164879 18.2228 2.71986 20.7082 7.03492 24.4598C7.78093 25.1163 8.57283 25.808 9.41055 26.5466L9.78931 26.8866L10.1681 26.5466C10.9943 25.808 11.7977 25.1163 12.5437 24.4598C16.8587 20.7082 19.7432 18.2228 19.5711 14.5299C19.4332 11.5169 17.1456 9.13708 14.4142 9.11365Z" fill="#E01F2D"/>
<path d="M19.571 14.5299C19.7432 18.2228 16.8587 20.7082 12.5436 24.4598C11.7976 25.1163 10.9943 25.808 10.168 26.5466L9.78925 26.8866V12.279C10.4434 11.0011 11.855 9.11365 14.3798 9.11365H14.4142C17.1456 9.13708 19.4332 11.5169 19.571 14.5299Z" fill="#C0BFBF"/>
<path d="M29.7903 22.544C29.0291 22.544 28.4089 22.3904 27.9296 22.0832C27.4504 21.7664 27.0885 21.2288 26.8442 20.4704C26.5999 19.712 26.4777 18.6752 26.4777 17.36C26.4777 16.0448 26.5952 15.008 26.8301 14.2496C27.0744 13.4912 27.4269 12.9584 27.8873 12.6512C28.3478 12.3344 28.9352 12.176 29.6494 12.176C30.1099 12.176 30.5422 12.2048 30.9463 12.2624C31.3503 12.32 31.6699 12.3872 31.9048 12.464V13.256H30.2132C29.5554 13.256 29.0479 13.5584 28.6908 14.1632C28.3431 14.768 28.1693 15.8336 28.1693 17.36C28.1693 18.4064 28.2538 19.232 28.423 19.8368C28.6016 20.432 28.8459 20.8544 29.156 21.104C29.4755 21.344 29.8749 21.464 30.3542 21.464H32.0458V22.256C31.8108 22.3328 31.4913 22.4 31.0872 22.4576C30.6831 22.5152 30.2508 22.544 29.7903 22.544ZM34.4433 22.4V13.472H32.2583V12.32H38.3198V13.472H36.1348V22.4H34.4433ZM41.9238 22.544C40.8807 22.544 40.0772 22.1456 39.5133 21.3488C38.9588 20.5424 38.6815 19.2128 38.6815 17.36C38.6815 15.5072 38.9588 14.1824 39.5133 13.3856C40.0772 12.5792 40.8807 12.176 41.9238 12.176C42.9763 12.176 43.7798 12.5792 44.3343 13.3856C44.8888 14.1824 45.166 15.5072 45.166 17.36C45.166 19.2128 44.8888 20.5424 44.3343 21.3488C43.7798 22.1456 42.9763 22.544 41.9238 22.544ZM41.9238 21.536C42.3749 21.536 42.7461 21.2192 43.0374 20.5856C43.3288 19.952 43.4744 18.8768 43.4744 17.36C43.4744 15.8432 43.3288 14.768 43.0374 14.1344C42.7461 13.5008 42.3749 13.184 41.9238 13.184C41.4727 13.184 41.1015 13.5008 40.8102 14.1344C40.5189 14.768 40.3732 15.8432 40.3732 17.36C40.3732 18.8768 40.5189 19.952 40.8102 20.5856C41.1015 21.2192 41.4727 21.536 41.9238 21.536ZM46.6434 22.4V12.32H52.5638V22.4H50.8723V13.472H48.3349V22.4H46.6434ZM60.7335 22.544C59.9723 22.544 59.352 22.3904 58.8728 22.0832C58.3935 21.7664 58.0317 21.2288 57.7873 20.4704C57.543 19.712 57.4208 18.6752 57.4208 17.36C57.4208 16.0448 57.5383 15.008 57.7732 14.2496C58.0176 13.4912 58.37 12.9584 58.8305 12.6512C59.291 12.3344 59.8783 12.176 60.5925 12.176C61.053 12.176 61.4853 12.2048 61.8894 12.2624C62.2935 12.32 62.613 12.3872 62.8479 12.464V13.256H61.1564C60.4985 13.256 59.9911 13.5584 59.634 14.1632C59.2863 14.768 59.1124 15.8336 59.1124 17.36C59.1124 18.4064 59.197 19.232 59.3661 19.8368C59.5447 20.432 59.789 20.8544 60.0991 21.104C60.4187 21.344 60.8181 21.464 61.2973 21.464H62.9889V22.256C62.754 22.3328 62.4344 22.4 62.0304 22.4576C61.6263 22.5152 61.194 22.544 60.7335 22.544ZM64.0473 22.4V12.32H69.1925V13.472H65.7389V16.568H68.7696V17.72H65.7389V21.248H69.1925V22.4H64.0473ZM70.5966 12.464C70.9444 12.3584 71.3062 12.2864 71.6821 12.248C72.0674 12.2 72.5279 12.176 73.0635 12.176C74.2382 12.176 75.084 12.4544 75.6009 13.0112C76.1177 13.568 76.3762 14.4896 76.3762 15.776C76.3762 17.1104 76.1365 18.0704 75.6572 18.656C75.1874 19.232 74.4638 19.52 73.4864 19.52C73.3736 19.52 73.1857 19.5056 72.9226 19.4768C72.6688 19.448 72.4574 19.4144 72.2882 19.376V22.4H70.5966V12.464ZM73.0635 18.368C73.618 18.368 74.0268 18.1808 74.2899 17.8064C74.553 17.4224 74.6846 16.7456 74.6846 15.776C74.6846 14.8448 74.553 14.192 74.2899 13.8176C74.0268 13.4432 73.618 13.256 73.0635 13.256H72.2882V18.368H73.0635ZM83.3488 24.56C83.0387 23.9264 82.8507 23.2064 82.7849 22.4H77.7102V12.32H79.4018V21.248H81.7982V12.32H83.4898V21.248H84.406V24.56H83.3488ZM85.6089 22.4V12.32H90.7541V13.472H87.3005V16.568H90.3312V17.72H87.3005V21.248H90.7541V22.4H85.6089ZM94.6247 22.544C94.0891 22.544 93.6286 22.52 93.2433 22.472C92.8674 22.4336 92.5056 22.3616 92.1579 22.256V12.464C92.5056 12.3584 92.8674 12.2864 93.2433 12.248C93.6286 12.2 94.0891 12.176 94.6247 12.176C95.6585 12.176 96.4338 12.4112 96.9506 12.8816C97.4675 13.3424 97.7259 13.9952 97.7259 14.84C97.7259 15.2816 97.6038 15.6992 97.3594 16.0928C97.1245 16.4768 96.8003 16.7696 96.3868 16.9712V17.0288C96.9506 17.2304 97.3829 17.5616 97.6836 18.0224C97.9938 18.4736 98.1488 19.0208 98.1488 19.664C98.1488 20.624 97.8716 21.344 97.3171 21.824C96.7627 22.304 95.8652 22.544 94.6247 22.544ZM94.4838 16.568C94.9442 16.568 95.3061 16.4288 95.5692 16.1504C95.8323 15.8624 95.9639 15.4496 95.9639 14.912C95.9639 14.3744 95.8323 13.9664 95.5692 13.688C95.3061 13.4 94.9442 13.256 94.4838 13.256H93.8494V16.568H94.4838ZM94.6247 21.464C95.2262 21.464 95.6679 21.3152 95.9498 21.0176C96.2411 20.7104 96.3868 20.2352 96.3868 19.592C96.3868 18.9104 96.2411 18.416 95.9498 18.1088C95.6679 17.8016 95.2262 17.648 94.6247 17.648H93.8494V21.464H94.6247ZM98.7166 22.4L101.254 12.32H103.368L105.906 22.4H104.144L103.523 19.88H101.099L100.479 22.4H98.7166ZM101.324 18.728H103.284L102.339 14.624H102.283L101.324 18.728ZM110.347 22.4V12.32H112.038V16.712H114.576V12.32H116.267V22.4H114.576V17.864H112.038V22.4H110.347ZM118.094 22.4V12.32H123.239V13.472H119.785V16.568H122.816V17.72H119.785V21.248H123.239V22.4H118.094ZM123.797 21.248H124.502C124.502 21.2768 124.558 21.1712 124.671 20.9312C124.793 20.6816 124.906 20.3504 125.009 19.9376C125.113 19.5152 125.179 19.016 125.207 18.44L125.489 12.32H130.563V21.248H131.48V24.56H130.423C130.112 23.9264 129.924 23.2064 129.859 22.4H125.418C125.353 23.2064 125.165 23.9264 124.854 24.56H123.797V21.248ZM128.872 21.248V13.328H127.138L126.898 18.44C126.87 19.016 126.804 19.5152 126.701 19.9376C126.598 20.3504 126.485 20.6816 126.363 20.9312C126.25 21.1712 126.194 21.2768 126.194 21.248H128.872ZM135.431 22.544C134.388 22.544 133.584 22.1456 133.021 21.3488C132.466 20.5424 132.189 19.2128 132.189 17.36C132.189 15.5072 132.466 14.1824 133.021 13.3856C133.584 12.5792 134.388 12.176 135.431 12.176C136.484 12.176 137.287 12.5792 137.842 13.3856C138.396 14.1824 138.673 15.5072 138.673 17.36C138.673 19.2128 138.396 20.5424 137.842 21.3488C137.287 22.1456 136.484 22.544 135.431 22.544ZM135.431 21.536C135.882 21.536 136.253 21.2192 136.545 20.5856C136.836 19.952 136.982 18.8768 136.982 17.36C136.982 15.8432 136.836 14.768 136.545 14.1344C136.253 13.5008 135.882 13.184 135.431 13.184C134.98 13.184 134.609 13.5008 134.317 14.1344C134.026 14.768 133.88 15.8432 133.88 17.36C133.88 18.8768 134.026 19.952 134.317 20.5856C134.609 21.2192 134.98 21.536 135.431 21.536ZM143.111 22.544C142.35 22.544 141.729 22.3904 141.25 22.0832C140.771 21.7664 140.409 21.2288 140.165 20.4704C139.92 19.712 139.798 18.6752 139.798 17.36C139.798 16.0448 139.916 15.008 140.151 14.2496C140.395 13.4912 140.747 12.9584 141.208 12.6512C141.668 12.3344 142.256 12.176 142.97 12.176C143.43 12.176 143.863 12.2048 144.267 12.2624C144.671 12.32 144.99 12.3872 145.225 12.464V13.256H143.534C142.876 13.256 142.368 13.5584 142.011 14.1632C141.664 14.768 141.49 15.8336 141.49 17.36C141.49 18.4064 141.574 19.232 141.743 19.8368C141.922 20.432 142.166 20.8544 142.476 21.104C142.796 21.344 143.195 21.464 143.675 21.464H145.366V22.256C145.131 22.3328 144.812 22.4 144.408 22.4576C144.004 22.5152 143.571 22.544 143.111 22.544ZM147.764 22.4V13.472H145.579V12.32H151.64V13.472H149.455V22.4H147.764ZM151.152 22.4L153.69 12.32H155.804L158.342 22.4H156.58L155.959 19.88H153.535L152.914 22.4H151.152ZM153.76 18.728H155.72L154.775 14.624H154.719L153.76 18.728ZM160.037 22.4V13.472H157.852V12.32H163.913V13.472H161.728V22.4H160.037ZM164.903 22.4V12.32H166.594V16.712H169.132V12.32H170.823V22.4H169.132V17.864H166.594V22.4H164.903ZM172.649 22.4V12.32H174.341V22.4H172.649ZM179.131 22.544C178.369 22.544 177.749 22.3904 177.27 22.0832C176.791 21.7664 176.429 21.2288 176.184 20.4704C175.94 19.712 175.818 18.6752 175.818 17.36C175.818 16.0448 175.935 15.008 176.17 14.2496C176.415 13.4912 176.767 12.9584 177.228 12.6512C177.688 12.3344 178.275 12.176 178.99 12.176C179.45 12.176 179.882 12.2048 180.287 12.2624C180.691 12.32 181.01 12.3872 181.245 12.464V13.256H179.554C178.896 13.256 178.388 13.5584 178.031 14.1632C177.683 14.768 177.51 15.8336 177.51 17.36C177.51 18.4064 177.594 19.232 177.763 19.8368C177.942 20.432 178.186 20.8544 178.496 21.104C178.816 21.344 179.215 21.464 179.694 21.464H181.386V22.256C181.151 22.3328 180.832 22.4 180.427 22.4576C180.023 22.5152 179.591 22.544 179.131 22.544ZM183.784 22.4V13.472H181.599V12.32H187.66V13.472H185.475V22.4H183.784ZM191.116 22.544C190.581 22.544 190.12 22.52 189.735 22.472C189.359 22.4336 188.997 22.3616 188.65 22.256V12.32H190.341V16.352C190.51 16.3136 190.722 16.28 190.975 16.2512C191.239 16.2224 191.427 16.208 191.539 16.208C192.498 16.208 193.217 16.472 193.696 17C194.185 17.528 194.429 18.344 194.429 19.448C194.429 20.504 194.166 21.2864 193.64 21.7952C193.113 22.2944 192.272 22.544 191.116 22.544ZM191.116 21.464C191.662 21.464 192.066 21.3056 192.329 20.9888C192.601 20.6624 192.738 20.1488 192.738 19.448C192.738 18.68 192.606 18.1424 192.343 17.8352C192.08 17.5184 191.671 17.36 191.116 17.36H190.341V21.464H191.116Z" fill="#E01F2D"/>
</g>
<defs>
<clipPath id="clip0_1030_2420">
<rect width="195" height="20" fill="white" transform="translate(0 8)"/>
</clipPath>
</defs>
</svg>
