<svg width="195" height="20" viewBox="0 0 195 20" fill="none" xmlns="http://www.w3.org/2000/svg">
<g clip-path="url(#clip0_667_6533)">
<path d="M14.4142 1.11365H14.3798C11.855 1.11365 10.4434 3.00115 9.78927 4.27902C9.12361 3.00111 7.72353 1.11365 5.19875 1.11365H5.15289C2.42145 1.13712 0.145009 3.51697 0.00731104 6.52994C-0.164879 10.2228 2.71986 12.7082 7.03492 16.4598C7.78093 17.1163 8.57283 17.808 9.41055 18.5466L9.78931 18.8866L10.1681 18.5466C10.9943 17.808 11.7977 17.1163 12.5437 16.4598C16.8587 12.7082 19.7432 10.2228 19.5711 6.52994C19.4332 3.51693 17.1456 1.13708 14.4142 1.11365Z" fill="#E01F2D"/>
<path d="M19.571 6.52994C19.7432 10.2228 16.8587 12.7082 12.5436 16.4598C11.7976 17.1163 10.9943 17.808 10.168 18.5466L9.78925 18.8866V4.27902C10.4434 3.00111 11.855 1.11365 14.3798 1.11365H14.4142C17.1456 1.13708 19.4332 3.51693 19.571 6.52994Z" fill="#C0BFBF"/>
<path d="M29.7903 14.544C29.0291 14.544 28.4089 14.3904 27.9296 14.0832C27.4504 13.7664 27.0885 13.2288 26.8442 12.4704C26.5999 11.712 26.4777 10.6752 26.4777 9.36002C26.4777 8.04482 26.5952 7.00802 26.8301 6.24963C27.0744 5.49123 27.4269 4.95843 27.8873 4.65123C28.3478 4.33443 28.9352 4.17603 29.6494 4.17603C30.1099 4.17603 30.5422 4.20483 30.9463 4.26243C31.3503 4.32003 31.6699 4.38723 31.9048 4.46403V5.25603H30.2132C29.5554 5.25603 29.0479 5.55843 28.6908 6.16323C28.3431 6.76803 28.1693 7.83362 28.1693 9.36002C28.1693 10.4064 28.2538 11.232 28.423 11.8368C28.6016 12.432 28.8459 12.8544 29.156 13.104C29.4755 13.344 29.8749 13.464 30.3542 13.464H32.0458V14.256C31.8108 14.3328 31.4913 14.4 31.0872 14.4576C30.6831 14.5152 30.2508 14.544 29.7903 14.544ZM34.4433 14.4V5.47203H32.2583V4.32003H38.3198V5.47203H36.1348V14.4H34.4433ZM41.9238 14.544C40.8807 14.544 40.0772 14.1456 39.5133 13.3488C38.9588 12.5424 38.6815 11.2128 38.6815 9.36002C38.6815 7.50723 38.9588 6.18243 39.5133 5.38563C40.0772 4.57923 40.8807 4.17603 41.9238 4.17603C42.9763 4.17603 43.7798 4.57923 44.3343 5.38563C44.8888 6.18243 45.166 7.50723 45.166 9.36002C45.166 11.2128 44.8888 12.5424 44.3343 13.3488C43.7798 14.1456 42.9763 14.544 41.9238 14.544ZM41.9238 13.536C42.3749 13.536 42.7461 13.2192 43.0374 12.5856C43.3288 11.952 43.4744 10.8768 43.4744 9.36002C43.4744 7.84323 43.3288 6.76803 43.0374 6.13443C42.7461 5.50083 42.3749 5.18403 41.9238 5.18403C41.4727 5.18403 41.1015 5.50083 40.8102 6.13443C40.5189 6.76803 40.3732 7.84323 40.3732 9.36002C40.3732 10.8768 40.5189 11.952 40.8102 12.5856C41.1015 13.2192 41.4727 13.536 41.9238 13.536ZM46.6434 14.4V4.32003H52.5638V14.4H50.8723V5.47203H48.3349V14.4H46.6434ZM60.7335 14.544C59.9723 14.544 59.352 14.3904 58.8728 14.0832C58.3935 13.7664 58.0317 13.2288 57.7873 12.4704C57.543 11.712 57.4208 10.6752 57.4208 9.36002C57.4208 8.04482 57.5383 7.00802 57.7732 6.24963C58.0176 5.49123 58.37 4.95843 58.8305 4.65123C59.291 4.33443 59.8783 4.17603 60.5925 4.17603C61.053 4.17603 61.4853 4.20483 61.8894 4.26243C62.2935 4.32003 62.613 4.38723 62.8479 4.46403V5.25603H61.1564C60.4985 5.25603 59.9911 5.55843 59.634 6.16323C59.2863 6.76803 59.1124 7.83362 59.1124 9.36002C59.1124 10.4064 59.197 11.232 59.3661 11.8368C59.5447 12.432 59.789 12.8544 60.0991 13.104C60.4187 13.344 60.8181 13.464 61.2973 13.464H62.9889V14.256C62.754 14.3328 62.4344 14.4 62.0304 14.4576C61.6263 14.5152 61.194 14.544 60.7335 14.544ZM64.0473 14.4V4.32003H69.1925V5.47203H65.7389V8.56803H68.7696V9.72002H65.7389V13.248H69.1925V14.4H64.0473ZM70.5966 4.46403C70.9444 4.35843 71.3062 4.28643 71.6821 4.24803C72.0674 4.20003 72.5279 4.17603 73.0635 4.17603C74.2382 4.17603 75.084 4.45443 75.6009 5.01123C76.1177 5.56803 76.3762 6.48963 76.3762 7.77603C76.3762 9.11042 76.1365 10.0704 75.6572 10.656C75.1874 11.232 74.4638 11.52 73.4864 11.52C73.3736 11.52 73.1857 11.5056 72.9226 11.4768C72.6688 11.448 72.4574 11.4144 72.2882 11.376V14.4H70.5966V4.46403ZM73.0635 10.368C73.618 10.368 74.0268 10.1808 74.2899 9.80643C74.553 9.42243 74.6846 8.74563 74.6846 7.77603C74.6846 6.84483 74.553 6.19203 74.2899 5.81763C74.0268 5.44323 73.618 5.25603 73.0635 5.25603H72.2882V10.368H73.0635ZM83.3488 16.56C83.0387 15.9264 82.8507 15.2064 82.7849 14.4H77.7102V4.32003H79.4018V13.248H81.7982V4.32003H83.4898V13.248H84.406V16.56H83.3488ZM85.6089 14.4V4.32003H90.7541V5.47203H87.3005V8.56803H90.3312V9.72002H87.3005V13.248H90.7541V14.4H85.6089ZM94.6247 14.544C94.0891 14.544 93.6286 14.52 93.2433 14.472C92.8674 14.4336 92.5056 14.3616 92.1579 14.256V4.46403C92.5056 4.35843 92.8674 4.28643 93.2433 4.24803C93.6286 4.20003 94.0891 4.17603 94.6247 4.17603C95.6585 4.17603 96.4338 4.41123 96.9506 4.88163C97.4675 5.34243 97.7259 5.99523 97.7259 6.84003C97.7259 7.28163 97.6038 7.69923 97.3594 8.09283C97.1245 8.47683 96.8003 8.76962 96.3868 8.97122V9.02883C96.9506 9.23042 97.3829 9.56162 97.6836 10.0224C97.9938 10.4736 98.1488 11.0208 98.1488 11.664C98.1488 12.624 97.8716 13.344 97.3171 13.824C96.7627 14.304 95.8652 14.544 94.6247 14.544ZM94.4838 8.56803C94.9442 8.56803 95.3061 8.42882 95.5692 8.15042C95.8323 7.86242 95.9639 7.44963 95.9639 6.91203C95.9639 6.37443 95.8323 5.96643 95.5692 5.68803C95.3061 5.40003 94.9442 5.25603 94.4838 5.25603H93.8494V8.56803H94.4838ZM94.6247 13.464C95.2262 13.464 95.6679 13.3152 95.9498 13.0176C96.2411 12.7104 96.3868 12.2352 96.3868 11.592C96.3868 10.9104 96.2411 10.416 95.9498 10.1088C95.6679 9.80162 95.2262 9.64803 94.6247 9.64803H93.8494V13.464H94.6247ZM98.7166 14.4L101.254 4.32003H103.368L105.906 14.4H104.144L103.523 11.88H101.099L100.479 14.4H98.7166ZM101.324 10.728H103.284L102.339 6.62403H102.283L101.324 10.728ZM110.347 14.4V4.32003H112.038V8.71203H114.576V4.32003H116.267V14.4H114.576V9.86402H112.038V14.4H110.347ZM118.094 14.4V4.32003H123.239V5.47203H119.785V8.56803H122.816V9.72002H119.785V13.248H123.239V14.4H118.094ZM123.797 13.248H124.502C124.502 13.2768 124.558 13.1712 124.671 12.9312C124.793 12.6816 124.906 12.3504 125.009 11.9376C125.113 11.5152 125.179 11.016 125.207 10.44L125.489 4.32003H130.563V13.248H131.48V16.56H130.423C130.112 15.9264 129.924 15.2064 129.859 14.4H125.418C125.353 15.2064 125.165 15.9264 124.854 16.56H123.797V13.248ZM128.872 13.248V5.32803H127.138L126.898 10.44C126.87 11.016 126.804 11.5152 126.701 11.9376C126.598 12.3504 126.485 12.6816 126.363 12.9312C126.25 13.1712 126.194 13.2768 126.194 13.248H128.872ZM135.431 14.544C134.388 14.544 133.584 14.1456 133.021 13.3488C132.466 12.5424 132.189 11.2128 132.189 9.36002C132.189 7.50723 132.466 6.18243 133.021 5.38563C133.584 4.57923 134.388 4.17603 135.431 4.17603C136.484 4.17603 137.287 4.57923 137.842 5.38563C138.396 6.18243 138.673 7.50723 138.673 9.36002C138.673 11.2128 138.396 12.5424 137.842 13.3488C137.287 14.1456 136.484 14.544 135.431 14.544ZM135.431 13.536C135.882 13.536 136.253 13.2192 136.545 12.5856C136.836 11.952 136.982 10.8768 136.982 9.36002C136.982 7.84323 136.836 6.76803 136.545 6.13443C136.253 5.50083 135.882 5.18403 135.431 5.18403C134.98 5.18403 134.609 5.50083 134.317 6.13443C134.026 6.76803 133.88 7.84323 133.88 9.36002C133.88 10.8768 134.026 11.952 134.317 12.5856C134.609 13.2192 134.98 13.536 135.431 13.536ZM143.111 14.544C142.35 14.544 141.729 14.3904 141.25 14.0832C140.771 13.7664 140.409 13.2288 140.165 12.4704C139.92 11.712 139.798 10.6752 139.798 9.36002C139.798 8.04482 139.916 7.00802 140.151 6.24963C140.395 5.49123 140.747 4.95843 141.208 4.65123C141.668 4.33443 142.256 4.17603 142.97 4.17603C143.43 4.17603 143.863 4.20483 144.267 4.26243C144.671 4.32003 144.99 4.38723 145.225 4.46403V5.25603H143.534C142.876 5.25603 142.368 5.55843 142.011 6.16323C141.664 6.76803 141.49 7.83362 141.49 9.36002C141.49 10.4064 141.574 11.232 141.743 11.8368C141.922 12.432 142.166 12.8544 142.476 13.104C142.796 13.344 143.195 13.464 143.675 13.464H145.366V14.256C145.131 14.3328 144.812 14.4 144.408 14.4576C144.004 14.5152 143.571 14.544 143.111 14.544ZM147.764 14.4V5.47203H145.579V4.32003H151.64V5.47203H149.455V14.4H147.764ZM151.152 14.4L153.69 4.32003H155.804L158.342 14.4H156.58L155.959 11.88H153.535L152.914 14.4H151.152ZM153.76 10.728H155.72L154.775 6.62403H154.719L153.76 10.728ZM160.037 14.4V5.47203H157.852V4.32003H163.913V5.47203H161.728V14.4H160.037ZM164.903 14.4V4.32003H166.594V8.71203H169.132V4.32003H170.823V14.4H169.132V9.86402H166.594V14.4H164.903ZM172.649 14.4V4.32003H174.341V14.4H172.649ZM179.131 14.544C178.369 14.544 177.749 14.3904 177.27 14.0832C176.791 13.7664 176.429 13.2288 176.184 12.4704C175.94 11.712 175.818 10.6752 175.818 9.36002C175.818 8.04482 175.935 7.00802 176.17 6.24963C176.415 5.49123 176.767 4.95843 177.228 4.65123C177.688 4.33443 178.275 4.17603 178.99 4.17603C179.45 4.17603 179.882 4.20483 180.287 4.26243C180.691 4.32003 181.01 4.38723 181.245 4.46403V5.25603H179.554C178.896 5.25603 178.388 5.55843 178.031 6.16323C177.683 6.76803 177.51 7.83362 177.51 9.36002C177.51 10.4064 177.594 11.232 177.763 11.8368C177.942 12.432 178.186 12.8544 178.496 13.104C178.816 13.344 179.215 13.464 179.694 13.464H181.386V14.256C181.151 14.3328 180.832 14.4 180.427 14.4576C180.023 14.5152 179.591 14.544 179.131 14.544ZM183.784 14.4V5.47203H181.599V4.32003H187.66V5.47203H185.475V14.4H183.784ZM191.116 14.544C190.581 14.544 190.12 14.52 189.735 14.472C189.359 14.4336 188.997 14.3616 188.65 14.256V4.32003H190.341V8.35202C190.51 8.31362 190.722 8.28003 190.975 8.25122C191.239 8.22242 191.427 8.20802 191.539 8.20802C192.498 8.20802 193.217 8.47202 193.696 9.00002C194.185 9.52802 194.429 10.344 194.429 11.448C194.429 12.504 194.166 13.2864 193.64 13.7952C193.113 14.2944 192.272 14.544 191.116 14.544ZM191.116 13.464C191.662 13.464 192.066 13.3056 192.329 12.9888C192.601 12.6624 192.738 12.1488 192.738 11.448C192.738 10.68 192.606 10.1424 192.343 9.83522C192.08 9.51842 191.671 9.36002 191.116 9.36002H190.341V13.464H191.116Z" fill="#E01F2D"/>
</g>
<defs>
<clipPath id="clip0_667_6533">
<rect width="195" height="20" fill="white"/>
</clipPath>
</defs>
</svg>
