<svg width="75" height="36" viewBox="0 0 75 36" fill="none" xmlns="http://www.w3.org/2000/svg">
<g clip-path="url(#clip0_1030_3528)">
<path fill-rule="evenodd" clip-rule="evenodd" d="M54.5429 22.9556C54.4283 23.0893 53.8323 24.2979 53.2184 25.6415C52.6046 26.9851 52.1023 28.1211 52.1023 28.1661C52.1023 28.2109 52.3646 28.2473 52.685 28.2469C53.183 28.246 53.3004 28.1881 53.492 27.8485C53.7054 27.4697 53.7621 27.4507 54.6946 27.4467C55.638 27.4429 55.6804 27.4571 55.8793 27.8451C56.0605 28.1986 56.1604 28.2477 56.6991 28.2477C57.0366 28.2477 57.3126 28.2261 57.3126 28.1998C57.3126 28.1735 56.7566 26.9486 56.0771 25.4777C55.3975 24.007 54.8212 22.7831 54.7966 22.7581C54.7717 22.7332 54.6577 22.822 54.5429 22.9556ZM65.9021 22.8645C65.6114 22.935 65.1951 23.1209 64.9771 23.2775C64.759 23.4343 64.4261 23.8284 64.2373 24.1535C63.9796 24.5969 63.8939 24.9413 63.8939 25.5322C63.8939 25.9655 63.9773 26.5212 64.0792 26.7672C64.181 27.0132 64.4843 27.4093 64.7529 27.6473C65.0217 27.8853 65.4713 28.1565 65.7521 28.25C66.0495 28.3491 66.5464 28.3862 66.9425 28.3388C67.3165 28.2942 67.8162 28.1434 68.0529 28.0039C68.2896 27.8644 68.6654 27.4889 68.8878 27.1697C69.193 26.7317 69.3064 26.391 69.3502 25.7822C69.3953 25.1525 69.3444 24.8494 69.1188 24.4034C68.9598 24.0888 68.6909 23.6994 68.5213 23.5379C68.3517 23.3764 68.0587 23.1635 67.8702 23.0648C67.6816 22.9661 67.2806 22.8519 66.9789 22.8108C66.6773 22.7698 66.1927 22.7939 65.9021 22.8645ZM70.4021 22.8841C70.3634 22.9858 70.3486 24.2187 70.3693 25.6238L70.4067 28.1785L70.9848 28.2208L71.5627 28.2632L71.6018 26.7771L71.6408 25.291L73.1741 26.8385C74.0174 27.6896 74.7733 28.386 74.8537 28.386C74.9524 28.386 75 27.4845 75 25.6115V22.8368L74.4173 22.8794L73.8345 22.9219L73.766 24.2976L73.6974 25.6733L72.2787 24.2976C71.4986 23.5409 70.773 22.8718 70.6663 22.8105C70.5458 22.7412 70.446 22.769 70.4021 22.8841ZM28.382 25.5502V28.2477H28.9304H29.4789V27.2857V26.3236L30.4044 26.2828L31.3299 26.2419V25.6931V25.1445L30.6815 25.1847C30.325 25.2069 29.9085 25.185 29.756 25.1362C29.5398 25.0669 29.4789 24.9278 29.4789 24.5034V23.9594H30.6443H31.8098V23.406V22.8527H30.0959H28.382V25.5502ZM32.7239 22.945C32.6736 22.9956 32.6325 24.2095 32.6325 25.6425V28.2477H34.4231H36.2139L36.1713 27.7289L36.1288 27.2102L34.9976 27.1701L33.8665 27.1298V26.6576V26.1853L34.792 26.1445L35.7175 26.1035L35.7596 25.5156L35.8018 24.9277H34.8341H33.8665V24.4435V23.9594H35.0319H36.1974V23.406V22.8527H34.5064C33.5762 22.8527 32.7741 22.8942 32.7239 22.945ZM37.2943 25.5502V28.2477H38.6012C39.4672 28.2477 40.0784 28.1759 40.413 28.0349C40.6905 27.9179 41.0366 27.7155 41.1821 27.5853C41.3274 27.455 41.5597 27.0995 41.6981 26.7952C41.8368 26.4909 41.9514 25.9442 41.953 25.5804C41.9547 25.2165 41.8679 24.7061 41.7603 24.446C41.6526 24.186 41.3595 23.7845 41.109 23.5536C40.8585 23.3229 40.4375 23.0711 40.1736 22.9942C39.9097 22.9172 39.1539 22.854 38.494 22.8535L37.2943 22.8527V25.5502ZM43.0529 25.5502V28.2477H44.7668H46.4807V27.6944V27.141H45.3153H44.1498V26.6632V26.1853L45.0753 26.1445L46.0008 26.1035L46.0429 25.5156L46.0852 24.9277H45.1174H44.1498V24.4435V23.9594H45.3153H46.4807V23.406V22.8527H44.7668H43.0529V25.5502ZM47.5776 25.5502V28.2477H48.1946H48.8116V27.2102C48.8116 26.2618 48.8354 26.1727 49.0883 26.1727C49.2978 26.1727 49.4835 26.4245 49.8531 27.2102L50.3413 28.2477H51.0257H51.7102L51.1617 27.2448L50.6132 26.2419L51.1521 25.6593C51.5718 25.2056 51.691 24.967 51.691 24.5803C51.691 24.3073 51.5973 23.9014 51.483 23.6781C51.3686 23.455 51.094 23.1779 50.8728 23.0626C50.5879 22.9139 50.0489 22.8527 49.0242 22.8527H47.5776V25.5502ZM57.1755 23.394C57.1755 23.9415 57.1775 23.9436 57.7582 23.9861L58.3409 24.0285L58.3787 26.1381L58.4166 28.2477H59.03H59.6435V26.1114V23.9753L60.2262 23.9327C60.7927 23.8915 60.8089 23.8768 60.8089 23.406V22.9219L58.9922 22.8833L57.1755 22.8447V23.394ZM61.7001 25.5502V28.2636L62.2829 28.221L62.8656 28.1785V25.5502V22.9219L62.2829 22.8794L61.7001 22.8368V25.5502ZM40.2559 24.4297C40.6538 24.8311 40.722 24.9952 40.722 25.5502C40.722 26.1052 40.6538 26.2693 40.2559 26.6707C39.8475 27.0826 39.7029 27.141 39.0904 27.141H38.3911V25.6425C38.3911 24.8181 38.4323 24.1023 38.4826 24.0516C38.5328 24.0009 38.8475 23.9594 39.1819 23.9594C39.6903 23.9594 39.8659 24.0363 40.2559 24.4297ZM50.4619 24.2453C50.5798 24.4677 50.565 24.6061 50.395 24.8678C50.212 25.1497 50.0657 25.2044 49.494 25.2044H48.8116V24.5819V23.9594H49.561C50.178 23.9594 50.337 24.0099 50.4619 24.2453ZM67.428 24.2366C67.6749 24.3885 67.9372 24.6725 68.0107 24.8677C68.0842 25.0627 68.1444 25.4424 68.1444 25.7114C68.1444 26.0831 68.0325 26.3132 67.6782 26.6707C67.323 27.0291 67.096 27.141 66.7249 27.141C66.457 27.141 66.0816 27.0692 65.8906 26.9814C65.6996 26.8937 65.4119 26.5479 65.2513 26.2131C64.9844 25.6569 64.9757 25.5607 65.1512 25.0954C65.2583 24.8116 65.5474 24.4475 65.8043 24.2728C66.058 24.1005 66.426 23.9596 66.6222 23.9599C66.8184 23.9602 67.1811 24.0847 67.428 24.2366ZM55.0249 25.8316C55.152 26.1005 55.2559 26.3495 55.2559 26.3849C55.2559 26.4203 55.0091 26.4494 54.7074 26.4494C54.4058 26.4494 54.159 26.4163 54.159 26.3758C54.159 26.3352 54.2484 26.0862 54.3577 25.8224C54.467 25.5586 54.6098 25.3427 54.6751 25.3427C54.7404 25.3427 54.8978 25.5626 55.0249 25.8316Z" fill="black"/>
<path fill-rule="evenodd" clip-rule="evenodd" d="M30.6076 8.64866C30.3845 9.12937 30.1272 9.75186 30.0356 10.032C29.944 10.312 29.7891 10.5412 29.6914 10.5412C29.5886 10.5412 29.4749 10.294 29.4212 9.95328C29.3703 9.62985 29.2346 9.03848 29.1198 8.63912C28.9143 7.92449 28.9025 7.91287 28.3806 7.91287H27.8502L28.0373 8.50078C28.1401 8.8242 28.4872 10.0381 28.8083 11.1983C29.1294 12.3585 29.4341 13.3078 29.4854 13.3078C29.5366 13.3078 29.7493 12.9189 29.958 12.4433C30.1667 11.9678 30.4935 11.2518 30.6845 10.8524C30.8754 10.4531 31.0846 10.1262 31.1495 10.1262C31.2142 10.1262 31.3254 10.2662 31.3966 10.4374C31.4677 10.6087 31.7665 11.2972 32.0606 11.9677C32.3546 12.638 32.6436 13.1983 32.7028 13.2127C32.762 13.2269 32.8981 12.9897 33.0051 12.6853C33.1121 12.381 33.3752 11.4784 33.5898 10.6795C33.8044 9.88065 34.0717 8.93141 34.184 8.56995L34.3881 7.91287H33.8584C33.3505 7.91287 33.3223 7.93722 33.1759 8.50078C33.0918 8.8242 32.9308 9.41558 32.8181 9.81494C32.7053 10.2143 32.5624 10.5412 32.5006 10.5412C32.4386 10.5412 32.2842 10.2767 32.1572 9.95328C32.0304 9.62985 31.7684 9.00736 31.5752 8.56995C31.382 8.13254 31.1765 7.77454 31.1185 7.77454C31.0605 7.77454 30.8306 8.16782 30.6076 8.64866ZM36.6961 7.97719C36.4048 8.08191 35.9912 8.33713 35.7769 8.54422C35.5627 8.7513 35.292 9.12356 35.1754 9.37145C35.0588 9.61934 34.9634 10.1457 34.9634 10.5412C34.9634 10.9367 35.0628 11.4716 35.1843 11.7299C35.3057 11.9882 35.6134 12.3841 35.868 12.6095C36.1227 12.835 36.5939 13.0925 36.9154 13.1817C37.3534 13.3033 37.6868 13.3051 38.2457 13.1893C38.7666 13.0814 39.1332 12.8988 39.4617 12.5834C39.7205 12.3351 40.0173 11.9317 40.1214 11.6869C40.2256 11.442 40.3107 10.9264 40.3107 10.5412C40.3107 10.1559 40.2256 9.64037 40.1214 9.39552C40.0173 9.15067 39.7242 8.75366 39.4701 8.51337C39.216 8.27309 38.7614 8.00887 38.4597 7.92629C38.1581 7.8437 37.757 7.77841 37.5685 7.78131C37.38 7.78436 36.9874 7.87234 36.6961 7.97719ZM41.5447 10.5293V13.1695H42.0186H42.4925L42.5328 12.1666C42.5714 11.2057 42.5872 11.1637 42.9087 11.1637C43.189 11.1637 43.325 11.3287 43.7314 12.1615L44.2184 13.1594L44.8011 13.1644C45.1216 13.1673 45.3839 13.1317 45.3839 13.0855C45.3839 13.0393 45.1526 12.5693 44.8697 12.0411L44.3555 11.0807L44.7495 10.787C44.9662 10.6254 45.2277 10.29 45.3305 10.0417C45.4334 9.79323 45.4815 9.40852 45.4376 9.18677C45.3936 8.96489 45.2152 8.60301 45.0412 8.38265C44.7296 7.98798 44.7013 7.98134 43.1348 7.93556L41.5447 7.88908V10.5293ZM46.6179 10.5412V13.1695H48.1947H49.7714V12.6853V12.2012H48.7431H47.7148V10.057V7.91287H47.1663H46.6179V10.5412ZM50.7312 10.5412V13.194L52.2052 13.1471C53.5966 13.103 53.7092 13.0772 54.2146 12.6871C54.5091 12.4599 54.8624 12.0241 54.9999 11.7188C55.1375 11.4135 55.2499 10.8836 55.2499 10.5412C55.2499 10.1988 55.1375 9.66886 54.9999 9.36356C54.8624 9.05826 54.5091 8.62252 54.2146 8.39523C53.7092 8.00514 53.5966 7.97941 52.2052 7.93528L50.7312 7.88838V10.5412ZM38.3776 9.08164C38.5889 9.19189 38.8635 9.43868 38.9879 9.63013C39.1121 9.82145 39.2138 10.2315 39.2138 10.5412C39.2138 10.8509 39.1121 11.2609 38.9879 11.4522C38.8635 11.6437 38.5889 11.8905 38.3776 12.0007C38.1663 12.111 37.8331 12.2012 37.6371 12.2012C37.441 12.2012 37.1078 12.111 36.8965 12.0007C36.6852 11.8905 36.4106 11.6437 36.2862 11.4522C36.162 11.2609 36.0603 10.8509 36.0603 10.5412C36.0603 10.2315 36.1616 9.822 36.2855 9.63124C36.4095 9.44034 36.6718 9.19604 36.8683 9.08828C37.0649 8.98052 37.3985 8.88977 37.6096 8.88673C37.8206 8.88369 38.1663 8.97139 38.3776 9.08164ZM44.2596 9.0472C44.35 9.1385 44.4241 9.34669 44.4241 9.50992C44.4241 9.67315 44.3073 9.9133 44.1644 10.0437C43.9766 10.2153 43.7203 10.2691 43.2389 10.2381L42.5731 10.1954L42.5313 9.53828L42.4894 8.8812H43.2922C43.7339 8.8812 44.1691 8.9559 44.2596 9.0472ZM53.4318 9.15178C53.7285 9.33424 53.9236 9.60205 54.0362 9.98122C54.1664 10.42 54.1664 10.6624 54.0362 11.1012C53.9236 11.4803 53.7285 11.7481 53.4318 11.9306C53.1603 12.0976 52.7457 12.2004 52.3423 12.2006L51.691 12.2012V10.5412V8.8812L52.3423 8.88175C52.7457 8.88203 53.1603 8.98481 53.4318 9.15178ZM40.4096 15.9707C40.22 16.3701 39.8355 17.195 39.5551 17.8037C39.2747 18.4123 38.8674 19.2888 38.6498 19.7512C38.4322 20.2137 38.2541 20.6377 38.2541 20.6933C38.2541 20.749 38.485 20.7752 38.7673 20.7515C39.1707 20.7178 39.3189 20.6273 39.4602 20.3282C39.6353 19.9579 39.6706 19.9478 40.7906 19.9478C41.9107 19.9478 41.9459 19.9579 42.121 20.3282C42.2624 20.6273 42.4106 20.7178 42.814 20.7515C43.0963 20.7752 43.3272 20.7529 43.3272 20.7021C43.3272 20.6514 43.1494 20.2275 42.9319 19.7601C42.7146 19.2927 42.2749 18.3501 41.9548 17.6653C41.6348 16.9806 41.2596 16.1557 41.1209 15.8324C40.9823 15.5091 40.8431 15.2445 40.8116 15.2445C40.7801 15.2445 40.5991 15.5714 40.4096 15.9707ZM28.382 18.0886V20.7945L28.8962 20.7515L29.4104 20.7086L29.4789 19.602L29.5475 18.4953H30.6444H31.7413L31.7812 19.6446L31.8212 20.7939L32.3296 20.7513L32.8381 20.7086L32.8754 18.0457L32.9126 15.3828H32.367H31.8213L31.7813 16.4549L31.7413 17.527H30.6444H29.5475L29.5074 16.4549L29.4674 15.3828H28.9247H28.382V18.0886ZM34.4462 18.0457L34.4835 20.7086H36.0604L37.7056 20.6933V20.2289V19.6711H36.5402H35.3747V19.2147C35.3747 18.9636 35.3747 18.4262 35.3747 18.4262C35.3747 18.4262 36.0785 18.4262 36.5676 18.4262H37.4314V18.0112V17.5962H36.5569C35.9633 17.5962 35.4434 17.5962 35.4434 17.5962C35.4434 17.5962 35.4191 16.5941 35.4434 16.3802C35.4434 16.3802 35.4474 16.4202 36.5744 16.3802L37.7056 16.34V15.8615V15.3828H36.0573H34.409L34.4462 18.0457ZM44.1499 18.0767V20.7945L44.6602 20.7515L45.1705 20.7086L45.1295 20.0496C45.107 19.6872 45.1299 19.2011 45.1804 18.9697C45.2524 18.6388 45.3353 18.5577 45.5679 18.5912C45.7759 18.6211 45.9958 18.8962 46.3081 19.517C46.5525 20.003 46.8223 20.4854 46.9076 20.5891C46.993 20.6929 47.2609 20.7778 47.5031 20.7778C47.7452 20.7778 47.9778 20.7431 48.0198 20.7006C48.0619 20.658 47.8568 20.1834 47.5638 19.6458L47.0313 18.6684L47.5788 18.1325C48.0501 17.6709 48.1256 17.515 48.1224 17.0084C48.1197 16.5665 48.0198 16.3 47.7212 15.9362L47.3237 15.452L45.7368 15.4055L44.1499 15.359V18.0767ZM48.8117 15.8591C48.8117 16.3205 48.8299 16.3366 49.3944 16.3779L49.9771 16.4203L50.0457 18.5645L50.1142 20.7086H50.5941H51.074L51.1117 18.5299L51.1496 16.3512H51.763C52.3729 16.3512 52.3766 16.3483 52.3766 15.867V15.3828H50.5941H48.8117V15.8591ZM46.8921 16.6278C47.0429 16.78 47.1663 16.9529 47.1663 17.012C47.1663 17.0712 47.0702 17.2579 46.9528 17.427C46.7769 17.6805 46.6088 17.7345 45.9957 17.7345C45.3167 17.7345 45.2444 17.7043 45.166 17.3887C45.1187 17.1985 45.1187 16.8872 45.166 16.697C45.2433 16.386 45.3208 16.3512 45.9349 16.3512C46.4351 16.3512 46.6912 16.4252 46.8921 16.6278ZM41.1307 18.144C41.283 18.4452 41.4076 18.7565 41.4076 18.8356C41.4076 18.9147 41.1259 18.9795 40.7814 18.9795C40.1952 18.9795 40.1613 18.9596 40.2503 18.6682C40.3026 18.497 40.4318 18.1857 40.5372 17.9766C40.6428 17.7674 40.7572 17.5962 40.7913 17.5962C40.8256 17.5962 40.9782 17.8427 41.1307 18.144Z" fill="#E01F2D"/>
<path d="M8.79421 6.31708C9.24572 6.19894 9.96611 6.05051 10.3949 5.98701C10.8236 5.92352 11.4366 5.86403 11.7572 5.85477L12.3399 5.83789V6.66789C12.3399 7.12438 12.2921 7.49788 12.2335 7.49788C12.175 7.49788 11.635 7.56013 11.0338 7.63622C10.4324 7.7123 9.47675 7.91897 8.90993 8.09534C8.34311 8.27185 7.43461 8.67828 6.89096 8.99865C6.34745 9.31889 5.52149 9.93697 5.05558 10.3722C4.58982 10.8072 3.98543 11.4747 3.71257 11.8551C3.43986 12.2356 3.04566 12.8714 2.83657 13.2679C2.62761 13.6642 2.2969 14.5046 2.10165 15.1354C1.80864 16.0821 1.7442 16.5714 1.73213 17.942C1.72007 19.3047 1.77491 19.8002 2.03817 20.7087C2.21463 21.3173 2.61212 22.3133 2.92171 22.922C3.35718 23.7785 3.78003 24.3269 4.79288 25.3488C5.80572 26.3706 6.34923 26.7972 7.19823 27.2366C7.80152 27.5489 8.78873 27.9476 9.39202 28.1227C10.2369 28.368 10.8354 28.4415 11.9971 28.4424C13.2477 28.4437 13.7279 28.378 14.8079 28.058C15.5243 27.8458 16.4498 27.4788 16.8646 27.2424C17.2794 27.0061 17.9272 26.582 18.3043 26.3002C18.6813 26.0183 19.2106 25.5475 19.4803 25.254C19.7501 24.9605 20.1587 24.4713 20.3884 24.167C20.6179 23.8626 21.022 23.1779 21.2863 22.6453C21.5507 22.1127 21.8978 21.165 22.058 20.5393C22.2181 19.9138 22.3491 19.0267 22.3491 18.5681V17.7345H23.2542H24.1594L24.0637 18.7374C24.0109 19.2891 23.8797 20.1761 23.7719 20.7087C23.6643 21.2412 23.3883 22.1345 23.1586 22.6937C22.9289 23.2529 22.4682 24.1399 22.1346 24.6648C21.8012 25.1898 21.1114 26.0444 20.6019 26.564C20.0924 27.0836 19.2844 27.7744 18.8064 28.0991C18.3284 28.4239 17.4785 28.9006 16.9177 29.1584C16.3569 29.4163 15.2671 29.7591 14.496 29.9202C13.3487 30.1598 12.8077 30.1988 11.5173 30.1348C10.65 30.0916 9.50719 29.9395 8.97767 29.7966C8.44814 29.6535 7.61519 29.3592 7.12666 29.1423C6.63813 28.9253 5.9608 28.5613 5.62144 28.3334C5.28209 28.1054 4.76504 27.7284 4.47259 27.4954C4.17999 27.2626 3.74809 26.8777 3.5128 26.6402C3.27738 26.4028 2.89443 25.9671 2.66161 25.6719C2.4288 25.3768 2.0612 24.8552 1.84484 24.5128C1.62848 24.1704 1.28241 23.5338 1.07578 23.0981C0.869151 22.6623 0.632497 22.071 0.550093 21.7839C0.467551 21.4969 0.310147 20.764 0.200183 20.1553C0.0902197 19.5467 0.000137112 18.5605 0 17.9637C0 17.367 0.124086 16.2636 0.276006 15.5118C0.427789 14.7599 0.757268 13.6919 1.00818 13.1384C1.25896 12.5849 1.70169 11.7585 1.9921 11.302C2.2825 10.8455 2.98643 10.0014 3.55654 9.42624C4.12665 8.85105 4.96331 8.14141 5.41578 7.84911C5.86825 7.55695 6.6288 7.14085 7.10582 6.92477C7.58296 6.70856 8.3427 6.43507 8.79421 6.31708Z" fill="#E01F2D"/>
<path d="M8.56633 10.1836C9.12314 9.9241 9.90687 9.65228 10.3081 9.57979C10.7091 9.5073 11.6544 9.4741 12.4085 9.50606C13.1626 9.53815 14.0264 9.6354 14.328 9.72227C14.6297 9.80915 15.3084 10.0873 15.8363 10.3405C16.3642 10.5936 17.1558 11.1254 17.5955 11.522C18.0351 11.9187 18.6284 12.5621 18.9137 12.9518C19.1992 13.3415 19.6223 14.0965 19.8542 14.6295C20.1015 15.198 20.3467 16.0935 20.4473 16.7958C20.5797 17.7187 20.5832 18.2621 20.4631 19.1678C20.3712 19.8611 20.1351 20.751 19.887 21.3392C19.6558 21.8874 19.2406 22.6464 18.9645 23.026C18.6883 23.4056 18.2416 23.9335 17.9719 24.1989C17.7022 24.4645 17.2348 24.8532 16.9332 25.0628C16.6315 25.2724 16.062 25.6084 15.6675 25.8094C15.273 26.0104 14.5635 26.2667 14.0907 26.3792C13.6179 26.4917 12.9073 26.5846 12.5113 26.5857L11.7915 26.5878V25.7884V24.9889L12.9226 24.8167C13.6887 24.7002 14.3714 24.485 15.0376 24.1501C15.6236 23.8554 16.3306 23.346 16.786 22.89C17.2066 22.4691 17.7334 21.8027 17.9566 21.409C18.1798 21.0155 18.4573 20.3258 18.5733 19.8766C18.6893 19.4273 18.7842 18.5994 18.7842 18.0366C18.7842 17.474 18.6863 16.6312 18.5666 16.1636C18.447 15.6962 18.1376 14.9615 17.8788 14.5311C17.6202 14.1008 17.0518 13.416 16.6156 13.0095C16.1795 12.6029 15.4776 12.0951 15.0558 11.881C14.6341 11.6668 13.8043 11.4058 13.2117 11.3007C12.4306 11.1622 11.8891 11.1449 11.243 11.2376C10.7529 11.3078 10.1505 11.4249 9.9044 11.4975C9.65843 11.5701 9.10312 11.8323 8.6704 12.08C8.23781 12.3278 7.52894 12.8937 7.0954 13.3376C6.66185 13.7816 6.307 14.2081 6.307 14.2853C6.307 14.3625 6.18443 14.5944 6.03443 14.8005C5.88456 15.0067 5.63776 15.6677 5.48598 16.2696C5.33433 16.8713 5.21011 17.5717 5.21011 17.8258V18.2878H4.38744H3.56477V17.615C3.56477 17.2451 3.62743 16.607 3.70394 16.1971C3.78058 15.7873 4.05535 15.0004 4.31463 14.4483C4.57391 13.8963 4.95755 13.2116 5.16733 12.9266C5.37711 12.6418 5.76747 12.1908 6.0347 11.9245C6.30207 11.6582 6.7533 11.2637 7.0374 11.0479C7.32149 10.8321 8.00952 10.4431 8.56633 10.1836Z" fill="#E01F2D"/>
<path d="M8.27922 15.2653C8.51423 15.0103 8.82986 14.7497 8.98068 14.6861C9.13151 14.6224 9.51309 14.5664 9.82872 14.5616C10.1444 14.5569 10.5763 14.6166 10.7885 14.6945C11.0007 14.7725 11.3714 15.0669 11.6121 15.3487L12.0498 15.8612L12.5738 15.2886C12.9373 14.8912 13.2572 14.6858 13.6188 14.6173C13.9053 14.5631 14.3906 14.5527 14.697 14.5942C15.0918 14.6476 15.4038 14.8168 15.7663 15.174C16.048 15.4515 16.3485 15.9149 16.4344 16.2037C16.5202 16.4927 16.5904 16.9164 16.5904 17.1452C16.5904 17.3741 16.5013 17.8161 16.3924 18.1275C16.2835 18.4389 15.9472 19.0312 15.6451 19.4439C15.3429 19.8564 14.5529 20.6573 13.8893 21.2235C13.2257 21.7899 12.5278 22.3544 12.3383 22.4781C11.9973 22.7009 11.9795 22.691 10.5236 21.4606C9.71492 20.7773 8.81697 19.8928 8.52821 19.4951C8.23932 19.0974 7.89901 18.5061 7.77204 18.1813C7.64494 17.8564 7.54101 17.3833 7.54101 17.1299C7.54101 16.8764 7.61094 16.4576 7.69649 16.1989C7.78205 15.9403 8.04421 15.5201 8.27922 15.2653Z" fill="#E01F2D"/>
</g>
<defs>
<clipPath id="clip0_1030_3528">
<rect width="75" height="36" fill="white"/>
</clipPath>
</defs>
</svg>
