<svg width="100" height="40" viewBox="0 0 100 40" fill="none" xmlns="http://www.w3.org/2000/svg">
<g clip-path="url(#clip0_833_2555)">
<path d="M8.75704 26.547L10.1968 22.5297L11.5447 26.5789H8.75704V26.547ZM12.9539 30.6282H14.2711L10.8401 20.9036H9.55352L6 30.6282H7.31725L8.3588 27.6311H11.9123L12.9539 30.6282ZM19.1725 28.5557C19.1725 29.3528 18.5599 29.7673 17.4877 29.7673C16.6299 29.7673 16.0785 29.5123 15.7415 28.9383L14.4856 29.1615C14.9757 30.2137 15.9866 30.692 17.4264 30.692C19.387 30.692 20.3979 29.576 20.3979 28.3644C20.3979 26.834 19.0194 26.4195 17.457 26.0688C16.6912 25.9094 15.8028 25.6224 15.8028 24.921C15.8028 24.4108 16.2623 23.8369 17.212 23.8369C18.1616 23.8369 18.7437 24.5065 18.8356 24.7934L19.9384 24.3152C19.4176 23.2949 18.4067 22.9123 17.3651 22.9123C15.7109 22.9123 14.6387 23.7412 14.6387 25.0804C14.6387 26.6108 15.8947 26.8978 17.1201 27.1847C18.1616 27.4717 19.1725 27.7268 19.1725 28.5557ZM23.0324 20.9036L21.807 21.4456V23.2311H20.6736V24.2514H21.807V29.0021C21.7764 29.9586 21.7764 30.6601 23.1856 30.6601C23.6451 30.6601 24.1352 30.5644 24.3496 30.5326V29.5441C24.1046 29.6079 23.7982 29.7036 23.5838 29.7036C23.063 29.7036 23.063 29.321 23.063 28.4601V24.2514H24.3496V23.2311H23.063V20.9036H23.0324ZM25.3912 23.2311V30.6282H26.5859V27.2166C26.5859 26.5789 26.5553 25.8456 26.8923 25.3036C27.2905 24.634 27.8419 24.4108 29.0366 24.3789V23.1036C28.5465 23.1354 27.2905 23.1354 26.6166 24.5383V23.2311H25.3912ZM36.0518 20.9036V22.1152H41.382L36.0824 29.3847V30.6601H42.9137V29.4804H37.4916L42.7912 22.147V20.9354H36.0518V20.9036ZM50.3884 23.2311V30.6282H51.5831V26.4195C51.5831 25.8775 51.5831 25.3036 52.1039 24.7615C52.4715 24.3789 52.931 24.1876 53.4518 24.1876C54.0951 24.1876 54.769 24.5065 54.9835 25.2079C55.0447 25.463 55.0447 25.6862 55.0447 26.4195V30.5963H56.2394V26.2601C56.2394 25.6224 56.2394 25.176 56.1169 24.7615C55.7799 23.5499 54.6771 23.0717 53.7887 23.0717C53.3599 23.0717 52.2264 23.1673 51.5831 24.3789V23.263H50.3884V23.2311ZM68.8912 28.8427C68.6461 29.3528 68.1866 29.7992 67.237 29.7992C66.4405 29.7992 65.0926 29.2891 65.0926 26.834C65.0926 26.1644 65.2151 23.8688 67.1757 23.8688C68.156 23.8688 68.6155 24.4427 68.8299 24.921L69.9327 24.4427C69.2588 23.263 68.0028 22.976 67.1144 22.976C64.8475 22.976 63.7447 24.8572 63.7447 26.9615C63.7447 28.7789 64.6944 30.7876 67.2063 30.7876C68.6461 30.7876 69.4732 30.0543 69.9021 29.321L68.8912 28.8427ZM44.6292 26.1644H48.3972C48.3053 24.2195 47.2331 23.9007 46.4979 23.9007C45.487 23.9007 44.7824 24.6659 44.6292 26.1644ZM49.3775 29.2253C48.9792 29.9586 48.1827 30.7557 46.6511 30.7557C44.568 30.7557 43.3426 29.2891 43.3426 26.8021C43.3426 24.0282 45.0887 22.976 46.5898 22.976C47.907 22.976 49.1324 23.7412 49.5613 25.5905C49.6838 26.2282 49.6838 26.7702 49.6838 27.0891H44.5986C44.568 28.3326 45.0581 29.8949 46.743 29.863C47.4169 29.863 47.907 29.5123 48.2134 29.034L49.3775 29.2253ZM58.2 26.1644H61.968C61.8761 24.2195 60.8039 23.9007 60.0687 23.9007C59.0271 23.9007 58.3225 24.6659 58.2 26.1644ZM62.9176 29.2253C62.5194 29.9586 61.7229 30.7557 60.1912 30.7557C58.1081 30.7557 56.8828 29.2891 56.8828 26.8021C56.8828 24.0282 58.6289 22.976 60.1299 22.976C61.4472 22.976 62.6725 23.7412 63.1014 25.5905C63.2239 26.2282 63.2239 26.7702 63.2239 27.0891H58.1081C58.0775 28.3326 58.5676 29.8949 60.2525 29.863C60.9264 29.863 61.4165 29.5123 61.7229 29.034L62.9176 29.2253ZM76.4884 30.6282H75.2324C75.2324 30.6282 75.1099 30.1181 75.0792 29.5441C74.7116 29.9268 74.0377 30.7239 72.6898 30.7239C71.3113 30.7239 70.3004 29.863 70.3004 28.6195C70.3004 28.2369 70.3923 27.8224 70.6067 27.5036C71.0049 26.8659 71.7708 26.3876 73.8845 26.1963L75.018 26.1007V25.9094C75.018 25.1441 75.018 23.8688 73.425 23.8688C72.4447 23.8688 72.0771 24.3789 71.9852 24.8253L70.8824 24.347C70.913 24.3152 70.913 24.2514 70.9437 24.2195C71.3725 23.4224 72.1997 22.9123 73.3944 22.9123C74.0377 22.9123 74.8954 23.0717 75.4468 23.5499C76.2433 24.1876 76.2127 25.3992 76.2127 25.3992L76.2739 29.1934C76.2739 29.2253 76.3352 30.3094 76.4884 30.6282ZM74.8342 28.5876C75.018 28.1731 75.018 28.0137 75.018 26.9297C74.5585 26.9934 73.9151 27.0891 73.1493 27.2804C71.832 27.5673 71.6176 28.1094 71.6176 28.6195C71.6176 29.2253 72.0771 29.7036 72.9655 29.7036C73.7926 29.7036 74.4972 29.3528 74.8342 28.5876ZM35.2246 30.6282H33.9993C33.9993 30.6282 33.8768 30.1181 33.8461 29.5441C33.4785 29.9268 32.8046 30.7239 31.4567 30.7239C30.0782 30.7239 29.0366 29.863 29.0366 28.6195C29.0366 28.2369 29.1285 27.8224 29.343 27.5036C29.7412 26.8659 30.507 26.3876 32.6208 26.1963L33.7542 26.1007V25.9094C33.7542 25.1441 33.7542 23.8688 32.1613 23.8688C31.1504 23.8688 30.8134 24.3789 30.7215 24.8253L29.6187 24.347C29.6493 24.3152 29.6493 24.2514 29.6799 24.2195C30.1088 23.4224 30.9359 22.9123 32.1306 22.9123C32.7739 22.9123 33.6317 23.0717 34.1831 23.5499C34.9796 24.1876 34.9489 25.3992 34.9489 25.3992L34.9796 29.1934C35.0102 29.2253 35.0715 30.3094 35.2246 30.6282ZM33.6011 28.5876C33.7849 28.1731 33.7849 28.0137 33.7849 26.9297C33.3254 26.9934 32.682 27.0891 31.9162 27.2804C30.5989 27.5673 30.3845 28.1094 30.3845 28.6195C30.3845 29.2253 30.844 29.7036 31.7324 29.7036C32.5289 29.7036 33.2335 29.3528 33.6011 28.5876Z" fill="#8A0051"/>
<path d="M84.2388 24.4109C84.0549 24.5384 83.8711 24.666 83.6873 24.7935C81.543 23.55 76.9479 21.1587 76.5497 20.9674C76.1208 20.7442 75.3856 20.4254 75.4775 19.6921C75.6 18.6718 77.3461 16.408 78.0813 15.4515C82.0637 10.4138 83.8405 8.85148 85.0046 9.0109C86.2606 9.17032 86.9652 10.5413 87.0571 16.8544C86.3525 16.6312 85.5866 16.408 84.7595 16.1848C84.6983 15.2602 84.5145 13.8892 84.4532 13.4109C84.3919 12.8689 84.2694 12.6776 84.0856 12.6457C83.8405 12.6138 83.2585 13.1877 82.7377 13.7616C82.4926 14.0167 81.8187 14.7182 81.0835 15.5153C80.4708 15.4834 80.0419 15.6109 79.8275 15.9297C79.6437 16.1848 79.613 16.5355 79.7049 16.9819C79.3067 17.3964 78.9697 17.7471 78.7247 18.0022C77.8975 18.8631 77.0092 19.5645 76.9785 19.9153C76.9479 20.2022 77.3461 20.4892 77.9588 20.8718C79.368 21.6689 82.9521 23.7095 84.2388 24.4109ZM89.8141 18.0979C88.405 17.5877 84.9433 16.2486 81.2979 15.7384C80.0419 15.579 79.5518 16.0254 80.0419 17.2689C80.5627 18.5124 81.8799 20.5529 83.2585 22.1153C84.637 23.6457 86.1381 24.0602 86.6282 21.7008C86.6588 21.6051 86.6588 21.5413 86.6895 21.4457C86.812 20.8399 86.9039 20.2341 86.9345 19.7239C86.3219 19.437 85.6173 19.1182 84.9433 18.8312C84.974 19.3732 85.0352 20.3297 85.0659 21.0312C85.0659 21.1268 85.0659 21.2225 85.0659 21.2863C85.0965 22.466 84.7289 22.466 84.0856 21.9877C83.3504 21.4457 81.0528 18.2892 80.7771 16.8863C80.7771 16.7906 80.8078 16.7906 80.8384 16.8225C80.869 16.8225 80.869 16.8225 80.8997 16.8544C81.4204 17.0776 83.1359 17.779 84.8821 18.5442C85.5866 18.8631 86.2912 19.15 86.9039 19.4689C87.5166 19.7558 88.068 20.0428 88.4969 20.266C89.2627 20.6805 89.5384 20.9674 89.2321 21.3182C87.6697 22.9761 82.1556 25.3355 80.2563 28.2689C80.2563 28.2689 80.2564 28.2689 80.2257 28.3008C80.1951 28.3326 80.1951 28.3645 80.1645 28.3964C80.1645 28.3964 80.1644 28.4283 80.1338 28.4283C80.0419 28.6196 79.9194 28.9066 79.8581 29.2892C79.7662 29.9268 80.1032 30.5008 80.9916 30.7558C81.206 30.8196 81.4511 30.8834 81.7268 30.9153C81.788 30.9153 81.8187 30.9153 81.8799 30.9153C83.5648 31.0109 87.9761 29.9906 89.2933 29.3848C90.6719 28.7471 90.2736 28.1095 89.8754 27.7906C89.569 27.5355 88.0373 26.6428 87.3021 26.2283C87.0877 26.3558 86.9345 26.4515 86.7507 26.6109C88.0067 27.408 88.5275 27.8225 88.8338 28.0457C88.9564 28.1413 88.8951 28.237 88.7113 28.2689C88.6807 28.2689 88.6194 28.2689 88.5888 28.2689C87.394 28.3645 85.0965 28.5239 84.0243 28.5877C83.8711 28.5877 83.6873 28.6196 83.5954 28.6196C83.8711 28.3645 84.1469 28.1413 84.3 28.0138C86.5976 26.3239 90.4268 23.9645 91.5602 22.9442C92.418 22.1471 94.6849 19.8515 89.8141 18.0979Z" fill="#EFAB00"/>
</g>
<defs>
<clipPath id="clip0_833_2555">
<rect width="87" height="22" fill="white" transform="translate(6 9)"/>
</clipPath>
</defs>
</svg>
